mtllib LOD1-UVFlip.mtl

g frontUV
usemtl frontUV

v -0.6982245 -2.034042 4.029492
vt 0.4813409 1.106353
vn -4.097493E-07 -1 1.338032E-07

v -0.6982244 -2.034041 7.712875
vt 0.3094366 1.105868
vn -2.048747E-07 -1 7.004104E-08

v -1.861953 -2.034041 4.029492
vt 0.4814303 1.053204
vn -2.048747E-07 -1 7.004104E-08

v -1.861953 -2.034041 7.690187
vt 0.3094015 1.052825
vn 0 -1 6.278926E-09

v -2.328205 -0.6172595 8.121069
vt 0.7962921 1.319241
vn -0.639989 0.7369986 0.2173644

v -1.868959 -0.01621525 7.435324
vt 0.7525764 1.350123
vn -0.639989 0.7369986 0.2173644

v -2.661109 -0.6172595 7.140894
vt 0.7962948 1.363602
vn -0.639989 0.7369986 0.2173644

v -0.6982248 -0.01621525 7.447212
vt 0.9746353 1.839844
vn 0.6388981 0.7527328 0.1587532

v -0.1994341 -0.5879326 8.150658
vt 0.9403753 1.871787
vn 0.6388981 0.7527328 0.1587532

v 0.05147164 -0.5879326 7.140894
vt 0.9404173 1.823449
vn 0.6388981 0.7527328 0.1587532

v -0.6982248 -0.01621525 7.447212
vt 0.9746353 1.839844
vn 0.6063923 0.7951657 4.171015E-09

v 0.05147164 -0.5879326 7.140894
vt 0.9404173 1.823449
vn 0.61954 0.7849465 -0.005409591

v -0.6982248 -0.01621525 4.238773
vt 0.9746991 1.692805
vn 0.61954 0.7849465 -0.005409591

v 0.04709311 -0.6278149 4.029492
vt 0.940954 1.681358
vn 0.6324977 0.7744867 -0.01081753

v -1.868959 -0.01621525 7.435324
vt 0.7525764 1.350123
vn -0.6045799 0.7965444 0.0005415503

v -1.87754 -0.01621525 -2.14456
vt 0.7525625 1.796956
vn -0.6066061 0.7950025 0.0002707763

v -2.661109 -0.6172595 7.140894
vt 0.7962948 1.363602
vn -0.6066061 0.7950025 0.0002707763

v -2.661109 -0.6172595 -2.14456
vt 0.7970437 1.796942
vn -0.6086282 0.7934555 5.407093E-10

v -1.87754 -0.01621525 -2.14456
vt 0.7394283 1.796956
vn 0 1 7.551847E-11

v -1.868959 -0.01621525 7.435324
vt 0.7346094 1.350123
vn -0.0001220077 0.9999278 0.01201558

v -0.6982248 -0.01621525 4.238773
vt 0.6805851 1.49908
vn 0 1 -2.034567E-10

v -0.6982248 -0.01621525 7.447212
vt 0.6810323 1.350549
vn -0.000336311 0.999712 0.02399353

v 0.7590473 -0.01621432 -3.085119
vt 0.974544 1.33657
vn 0.7442423 0.6679098 2.380902E-07

v 0.7590468 -0.01621571 2.356943
vt 0.9746664 1.585621
vn 0.7442417 0.6679104 1.186852E-07

v 1.298447 -0.6172595 -3.085119
vt 0.9399738 1.337222
vn 0.7442417 0.6679104 1.186852E-07

v 1.298447 -0.6172595 2.366514
vt 0.9405015 1.585706
vn 0.7442411 0.6679111 -7.197379E-10

v -0.6982248 -0.01621525 4.238773
vt 0.9746991 1.692805
vn 0.6313035 0.6020437 0.4888754

v 0.04709311 -0.6278149 4.029492
vt 0.940954 1.681358
vn 0.6382893 0.5944657 0.489078

v 0.7590468 -0.01621571 2.356943
vt 0.9746664 1.585621
vn 0.6382893 0.5944657 0.489078

v 1.298447 -0.6172595 2.366514
vt 0.9405015 1.585706
vn 0.6452073 0.5868244 0.4892286

v -2.328205 -0.6172595 8.121069
vt 0.8478268 1.866091
vn -0.9468769 0.000904689 0.321595

v -2.661109 -0.6172595 7.140894
vt 0.8478268 1.821593
vn -0.9470038 0.0004519607 0.3212219

v -2.329633 -1.516155 8.119392
vt 0.8066746 1.865997
vn -0.9470038 0.0004519607 0.3212219

v -2.661108 -1.516155 7.140894
vt 0.8066746 1.821593
vn -0.9471304 -7.677929E-07 0.3208487

v 0.05147164 -0.5879326 7.140894
vt 0.9404173 1.823449
vn 0.9704785 -0.004577854 0.2411442

v -0.1994341 -0.5879326 8.150658
vt 0.9403753 1.871787
vn 0.9707684 -0.003251891 0.2399961

v 0.04709311 -1.516155 7.140894
vt 0.8902996 1.823591
vn 0.9707684 -0.003251891 0.2399961

v -0.2008627 -1.516155 8.148981
vt 0.89025 1.872049
vn 0.9710552 -0.001925917 0.2388473

v 0.05147164 -0.5879326 7.140894
vt 0.9404173 1.823449
vn 0.999988 -0.004717064 -0.001346774

v 0.04709311 -1.516155 7.140894
vt 0.8902996 1.823591
vn 0.999997 -0.002358539 -0.000673389

v 0.04709311 -0.6278149 4.029492
vt 0.940954 1.681358
vn 0.999997 -0.002358539 -0.000673389

v 0.04709311 -1.516155 4.029492
vt 0.8903229 1.68135
vn 1 9.874809E-10 0

v -2.661109 -0.6172595 7.140894
vt 0.8478268 1.821593
vn -1 -8.775856E-07 0

v -2.661109 -0.6172595 -2.14456
vt 0.8478216 1.391684
vn -1 -9.140666E-07 0

v -2.661108 -1.516155 7.140894
vt 0.8066746 1.821593
vn -1 -9.140666E-07 0

v -2.661108 -1.516155 -2.14456
vt 0.8066696 1.391684
vn -1 -9.505475E-07 0

v -1.87754 -2.034041 -2.14456
vt 0.7780865 1.052989
vn -0.5290481 -0.8004553 -0.2817434

v -2.661108 -1.516155 -2.14456
vt 0.7778205 1.010203
vn -0.5290481 -0.8004553 -0.2817434

v -1.508648 -1.775098 -3.57293
vt 0.8627075 1.052914
vn -0.5290481 -0.8004553 -0.2817434

v 1.298447 -0.6172595 -3.085119
vt 0.9399738 1.337222
vn 1 1.078024E-06 0

v 1.298447 -0.6172595 2.366514
vt 0.9405015 1.585706
vn 1 1.071288E-06 0

v 1.298448 -1.516155 -3.085119
vt 0.8902929 1.336517
vn 1 1.071288E-06 0

v 1.298448 -1.516155 2.356943
vt 0.8903122 1.585807
vn 1 1.064551E-06 0

v 0.04709311 -1.516155 4.029492
vt 0.8903229 1.68135
vn 0.8007019 -4.456983E-08 0.5990629

v 1.298448 -1.516155 2.356943
vt 0.8903122 1.585807
vn 0.7998818 -0.003200377 0.600149

v 0.04709311 -0.6278149 4.029492
vt 0.940954 1.681358
vn 0.7998818 -0.003200377 0.600149

v 1.298447 -0.6172595 2.366514
vt 0.9405015 1.585706
vn 0.799052 -0.00640067 0.6012278

v -1.861953 -2.034041 7.690187
vt 0.3094015 1.052825
vn -0.6304224 -0.7462971 0.2135611

v -2.329633 -1.516155 8.119392
vt 0.2914026 1.025009
vn -0.6304224 -0.7462971 0.2135611

v -2.661108 -1.516155 7.140894
vt 0.3340034 1.009423
vn -0.6304224 -0.7462971 0.2135611

v 0.04709311 -1.516155 7.140894
vt 0.8902996 1.823591
vn 0.6423546 -0.7499448 0.1579977

v -0.2008627 -1.516155 8.148981
vt 0.89025 1.872049
vn 0.6423546 -0.7499448 0.1579977

v -0.6982244 -2.034041 7.712875
vt 0.8584206 1.84908
vn 0.6423546 -0.7499448 0.1579977

v -0.6982244 -2.034041 7.712875
vt 0.8584206 1.84908
vn 0.5706224 -0.8212126 9.708953E-08

v -0.6982245 -2.034042 4.029492
vt 0.8584439 1.681323
vn 0.5706226 -0.8212125 4.450894E-08

v 0.04709311 -1.516155 7.140894
vt 0.8902996 1.823591
vn 0.5706226 -0.8212125 4.450894E-08

v 0.04709311 -1.516155 4.029492
vt 0.8903229 1.68135
vn 0.5706227 -0.8212124 -8.071652E-09

v -1.861953 -2.034041 7.690187
vt 0.3094015 1.052825
vn -0.5438332 -0.8391933 -8.871686E-09

v -2.661108 -1.516155 7.140894
vt 0.3340034 1.009423
vn -0.5438331 -0.8391933 -2.687058E-09

v -1.861953 -2.034041 4.029492
vt 0.4814303 1.053204
vn -0.5462906 -0.8375956 0.0004520771

v -2.661108 -1.516155 -2.14456
vt 0.7778205 1.010203
vn -0.5488077 -0.8359481 0.0009233489

v -1.867753 -2.034041 1.6723
vt 0.5918123 1.053124
vn -0.5512876 -0.8343141 0.001385009

v -1.87754 -2.034041 -2.14456
vt 0.7780865 1.052989
vn -0.5513842 -0.8342502 0.001413794

v 0.73979 -0.3939154 -3.57293
vt 0.9571245 1.308878
vn 0.6530719 0.5860904 -0.4795781

v 0.7590473 -0.01621432 -3.085119
vt 0.974544 1.33657
vn 0.6530719 0.5860904 -0.4795781

v 1.298447 -0.6172595 -3.085119
vt 0.9399738 1.337222
vn 0.6530719 0.5860904 -0.4795781

v -0.5735234 -0.1303229 10.62334
vt 0.6781263 1.206992
vn -0.0006428174 0.9993541 0.03592872

v -1.983771 -0.130323 10.59811
vt 0.7316396 1.20694
vn -0.0005043938 0.9993522 0.03598512

v -1.983771 -0.130323 10.59811
vt 0.7625651 1.205141
vn -0.810653 0.5854681 -0.008304673

v -1.868959 -0.01621525 7.435324
vt 0.7525764 1.350123
vn -0.8027054 0.5963613 -0.004152755

v -2.328205 -0.6172595 9.891358
vt 0.7963779 1.236908
vn -0.8027054 0.5963613 -0.004152755

v -2.328205 -0.6172595 8.121069
vt 0.7962921 1.319241
vn -0.794598 0.6071359 -8.919876E-09

v -0.5735234 -0.1303229 10.62334
vt 0.9671414 1.984739
vn 0.768752 0.6395064 -0.007207473

v -0.1994341 -0.5879326 9.920948
vt 0.9403105 1.952553
vn 0.7611988 0.6485085 -0.003604013

v -0.6982248 -0.01621525 7.447212
vt 0.9746353 1.839844
vn 0.7611988 0.6485085 -0.003604013

v -0.1994341 -0.5879326 8.150658
vt 0.9403753 1.871787
vn 0.7535307 0.6574126 -8.753426E-09

v -2.328205 -0.6172595 9.891358
vt 0.8477925 1.947135
vn -0.9999987 0.001589021 -4.100795E-11

v -2.328205 -0.6172595 8.121069
vt 0.8478268 1.866091
vn -0.9999987 0.001589048 -6.255913E-11

v -2.329633 -1.516155 8.982496
vt 0.8066579 1.905511
vn -0.9999987 0.001589048 -6.255913E-11

v -2.329633 -1.516155 8.119392
vt 0.8066746 1.865997
vn -0.9999987 0.001589076 -8.411032E-11

v -0.1994341 -0.5879326 9.920948
vt 0.9403105 1.952553
vn 0.9999988 -0.001539078 -1.591262E-12

v -0.2008627 -1.516154 9.008388
vt 0.8902168 1.910912
vn 0.9999988 -0.001539076 9.350567E-09

v -0.1994341 -0.5879326 8.150658
vt 0.9403753 1.871787
vn 0.9999988 -0.001539076 9.350567E-09

v -0.2008627 -1.516155 8.148981
vt 0.89025 1.872049
vn 0.9999988 -0.001539073 1.870272E-08

v -2.328205 -0.6172595 9.891358
vt 0.5826926 1.23064
vn 0.003485116 -0.8242604 0.5662003

v -0.1994341 -0.5879326 9.920948
vt 0.5826921 1.310638
vn -0.003108093 -0.8323262 0.5542774

v -1.983771 -0.130323 10.59811
vt 0.5394102 1.246134
vn -0.003108093 -0.8323262 0.5542774

v -0.5735234 -0.1303229 10.62334
vt 0.5396988 1.310704
vn -0.009700522 -0.8401834 0.5422155

v -1.861953 -2.034041 7.690187
vt 0.2407264 1.082445
vn -0.7421656 -0.6702166 6.504306E-08

v -2.329633 -1.516155 8.982496
vt 0.256797 1.018805
vn -0.7421656 -0.6702166 6.504306E-08

v -2.329633 -1.516155 8.119392
vt 0.2595563 1.063351
vn -0.7421656 -0.6702166 6.504306E-08

v -0.2008627 -1.516154 9.008388
vt 0.169965 1.019058
vn 0.7212541 -0.6926706 5.608948E-07

v -0.6982244 -2.034041 7.712875
vt 0.1913252 1.082401
vn 0.7212541 -0.6926706 5.608948E-07

v -0.2008627 -1.516155 8.148981
vt 0.16098 1.063732
vn 0.7212541 -0.6926706 5.608948E-07

v -0.2008627 -1.516154 9.008388
vt 0.169965 1.019058
vn -0.00453259 -0.9279447 0.3726902

v -2.329633 -1.516155 8.982496
vt 0.256797 1.018805
vn -0.005870424 -0.9285303 0.3712101

v -0.6982244 -2.034041 7.712875
vt 0.1913252 1.082401
vn -0.005870424 -0.9285303 0.3712101

v -1.861953 -2.034041 7.690187
vt 0.2407264 1.082445
vn -0.007208234 -0.9291119 0.3697284

v 0.7397903 -1.775098 -3.57293
vt 0.8635271 1.153188
vn 2.260342E-07 -0.5202925 -0.8539882

v -1.221594 -4.119571 -2.14456
vt 0.7920773 1.082468
vn 2.260342E-07 -0.5202925 -0.8539882

v -1.508648 -1.775098 -3.57293
vt 0.8622551 1.066447
vn 2.260342E-07 -0.5202925 -0.8539882

v 0.4096879 -0.5468898 -5.965673
vt 0.7838074 1.188855
vn -2.41555E-07 -1.870845E-06 -1

v 0.4096879 -1.566402 -5.965672
vt 0.7254495 1.188807
vn 3.59554E-07 -9.354226E-07 -1

v -1.178546 -0.5468905 -5.965673
vt 0.7821912 1.114532
vn 3.59554E-07 -9.354226E-07 -1

v -1.178547 -1.555053 -5.965673
vt 0.7241773 1.114969
vn 9.60663E-07 -4.260066E-13 -1

v 0.7397903 -1.775098 -3.57293
vt 0.8635271 1.153188
vn 3.462436E-08 -0.9962178 -0.08689065

v -1.508648 -1.775098 -3.57293
vt 0.8622551 1.066447
vn -0.003557258 -0.9959607 -0.08972024

v 0.4096879 -1.566402 -5.965672
vt 0.9793668 1.144111
vn -0.003557258 -0.9959607 -0.08972024

v -1.178547 -1.555053 -5.965673
vt 0.9798282 1.083285
vn -0.007114477 -0.9956828 -0.09254798

v -1.508648 -1.775098 -3.57293
vt 0.8066722 1.312729
vn -0.9906173 -5.829868E-07 -0.1366651

v -1.508649 -0.3939156 -3.57293
vt 0.8478237 1.31273
vn -0.9906173 -1.436188E-07 -0.1366653

v -1.178547 -1.555053 -5.965673
vt 0.8098477 1.210129
vn -0.9906173 -1.436188E-07 -0.1366653

v -1.178546 -0.5468905 -5.965673
vt 0.8456773 1.21013
vn -0.9906173 2.957492E-07 -0.1366655

v 0.73979 -0.3939154 -3.57293
vt 0.9571245 1.308878
vn 0.9906173 2.715103E-07 -0.1366652

v 0.7397903 -1.775098 -3.57293
vt 0.8743626 1.308841
vn 0.9906173 6.95664E-10 -0.1366653

v 0.4096879 -0.5468898 -5.965673
vt 0.9533949 1.197431
vn 0.9906173 6.95664E-10 -0.1366653

v 0.4096879 -1.566402 -5.965672
vt 0.8821486 1.197182
vn 0.9906173 -2.70119E-07 -0.1366654

v -1.508649 -0.3939156 -3.57293
vt 0.7139868 1.858882
vn -9.024355E-08 0.9979625 -0.06380261

v 0.73979 -0.3939154 -3.57293
vt 0.6241197 1.858691
vn -2.630306E-07 0.9979625 -0.06380248

v -1.178546 -0.5468905 -5.965673
vt 0.7038386 1.968954
vn -2.630306E-07 0.9979625 -0.06380248

v 0.4096879 -0.5468898 -5.965673
vt 0.6422932 1.966051
vn -4.358177E-07 0.9979625 -0.06380235

v 0.7397903 -1.775098 -3.57293
vt 0.8743626 1.308841
vn 0.6577296 1.917078E-07 -0.7532541

v 0.73979 -0.3939154 -3.57293
vt 0.9571245 1.308878
vn 0.6577299 4.283171E-07 -0.7532539

v 1.298448 -1.516155 -3.085119
vt 0.8902929 1.336517
vn 0.6577299 4.283171E-07 -0.7532539

v 1.298447 -0.6172595 -3.085119
vt 0.9399738 1.337222
vn 0.65773 6.649265E-07 -0.7532538

v -1.508648 -1.775098 -3.57293
vt 0.8066722 1.312729
vn -0.7782671 -4.786356E-07 -0.6279333

v -2.661108 -1.516155 -2.14456
vt 0.8066696 1.391684
vn -0.7782671 -5.941827E-07 -0.6279334

v -1.508649 -0.3939156 -3.57293
vt 0.8478237 1.31273
vn -0.7782671 -5.941827E-07 -0.6279334

v -2.661109 -0.6172595 -2.14456
vt 0.8478216 1.391684
vn -0.778267 -7.097296E-07 -0.6279334

v -1.508649 -0.3939156 -3.57293
vt 0.7777335 1.858316
vn -0.5713658 0.7448773 -0.3445272

v -2.661109 -0.6172595 -2.14456
vt 0.7970437 1.796942
vn -0.5713658 0.7448773 -0.3445272

v -1.87754 -0.01621525 -2.14456
vt 0.7525625 1.796956
vn -0.5713658 0.7448773 -0.3445272

v -1.87754 -0.01621525 -2.14456
vt 0.7394283 1.796956
vn -0.0992651 0.9553626 -0.2782602

v 0.7590473 -0.01621432 -3.085119
vt 0.6141605 1.84132
vn -0.05058025 0.8896978 -0.4537395

v -1.508649 -0.3939156 -3.57293
vt 0.7139868 1.858882
vn -0.05058025 0.8896978 -0.4537395

v 0.73979 -0.3939154 -3.57293
vt 0.6241197 1.858691
vn 9.677064E-08 0.7906915 -0.6122148

v 0.7590468 -0.01621571 2.356943
vt 0.6148272 1.589362
vn -1.817071E-09 1 1.037247E-07

v 0.7590473 -0.01621432 -3.085119
vt 0.6141605 1.84132
vn -2.595631E-07 1 2.547297E-07

v -0.1994341 -0.5879326 9.920948
vt 0.5826921 1.310638
vn -0.0002535323 -0.7010652 0.713097

v -2.328205 -0.6172595 9.891358
vt 0.5826926 1.23064
vn -0.004402956 -0.706037 0.7081613

v -0.2008627 -1.516154 9.008388
vt 0.6421294 1.310923
vn -0.004402956 -0.706037 0.7081613

v -2.329633 -1.516155 8.982496
vt 0.6412189 1.230829
vn -0.008552088 -0.7109619 0.7031785

v -1.861953 -2.034041 4.029492
vt 0.003933817 1.951705
vn -0.6107167 -0.6676555 0.4257479

v -1.219769 -4.124584 1.6723
vt 0.2063634 1.977708
vn -0.6107167 -0.6676555 0.4257479

v -0.6982245 -2.034042 4.029492
vt 0.002052052 1.996797
vn -3.626285E-07 -0.7481558 0.6635231

# 155 vertice(s).

f 1/1/1 2/2/2 3/3/3
f 2/2/2 4/4/4 3/3/3
f 5/5/5 6/6/6 7/7/7
f 8/8/8 9/9/9 10/10/10
f 11/11/11 12/12/12 13/13/13
f 13/13/13 12/12/12 14/14/14
f 15/15/15 16/16/16 17/17/17
f 18/18/18 17/17/17 16/16/16
f 19/19/19 20/20/20 21/21/21
f 21/21/21 20/20/20 22/22/22
f 23/23/23 24/24/24 25/25/25
f 24/24/24 26/26/26 25/25/25
f 27/27/27 28/28/28 29/29/29
f 29/29/29 28/28/28 30/30/30
f 31/31/31 32/32/32 33/33/33
f 33/33/33 32/32/32 34/34/34
f 35/35/35 36/36/36 37/37/37
f 36/36/36 38/38/38 37/37/37
f 39/39/39 40/40/40 41/41/41
f 41/41/41 40/40/40 42/42/42
f 43/43/43 44/44/44 45/45/45
f 44/44/44 46/46/46 45/45/45
f 47/47/47 48/48/48 49/49/49
f 50/50/50 51/51/51 52/52/52
f 51/51/51 53/53/53 52/52/52
f 54/54/54 55/55/55 56/56/56
f 57/57/57 56/56/56 55/55/55
f 58/58/58 59/59/59 60/60/60
f 61/61/61 62/62/62 63/63/63
f 64/64/64 65/65/65 66/66/66
f 67/67/67 66/66/66 65/65/65
f 68/68/68 69/69/69 70/70/70
f 69/69/69 71/71/71 70/70/70
f 70/70/70 71/71/71 72/72/72
f 73/73/73 72/72/72 71/71/71
f 74/74/74 75/75/75 76/76/76
f 77/77/77 22/22/22 78/78/78
f 22/22/22 20/20/20 78/78/78
f 79/79/79 80/80/80 81/81/81
f 80/80/80 82/82/82 81/81/81
f 83/83/83 84/84/84 85/85/85
f 86/86/86 85/85/85 84/84/84
f 87/87/87 88/88/88 89/89/89
f 88/88/88 90/90/90 89/89/89
f 91/91/91 92/92/92 93/93/93
f 94/94/94 93/93/93 92/92/92
f 95/95/95 96/96/96 97/97/97
f 97/97/97 96/96/96 98/98/98
f 99/99/99 100/100/100 101/101/101
f 102/102/102 103/103/103 104/104/104
f 105/105/105 106/106/106 107/107/107
f 106/106/106 108/108/108 107/107/107
f 109/109/109 110/110/110 111/111/111
f 112/112/112 113/113/113 114/114/114
f 113/113/113 115/115/115 114/114/114
f 116/116/116 117/117/117 118/118/118
f 117/117/117 119/119/119 118/118/118
f 120/120/120 121/121/121 122/122/122
f 121/121/121 123/123/123 122/122/122
f 124/124/124 125/125/125 126/126/126
f 125/125/125 127/127/127 126/126/126
f 128/128/128 129/129/129 130/130/130
f 129/129/129 131/131/131 130/130/130
f 132/132/132 133/133/133 134/134/134
f 134/134/134 133/133/133 135/135/135
f 136/136/136 137/137/137 138/138/138
f 137/137/137 139/139/139 138/138/138
f 140/140/140 141/141/141 142/142/142
f 143/143/143 144/144/144 145/145/145
f 145/145/145 144/144/144 146/146/146
f 21/21/21 147/147/147 19/19/19
f 147/147/147 148/148/148 19/19/19
f 149/149/149 150/150/150 151/151/151
f 151/151/151 150/150/150 152/152/152
f 153/153/153 154/154/154 155/155/155
# 225 indices; 75 primitives.

# 1 primitive groups.

g leftoverUV
usemtl leftoverUV

v -1.219769 -4.124584 1.6723
vt 0.4092698 0.6308249
vn -0.9551682 -0.2960636 6.78837E-05

v -1.867753 -2.034041 1.6723
vt 0.4092166 0.4205252
vn -0.95455 -0.2980483 0.001256982

v -1.221594 -4.119571 -2.14456
vt 0.8123218 0.6331248
vn -0.95455 -0.2980483 0.001256982

v -1.87754 -2.034041 -2.14456
vt 0.8140519 0.4237384
vn -0.9539262 -0.3000314 0.002446072

v 1.298448 -1.516155 -3.085119
vt 0.8890381 0.3995214
vn 0.7185184 -0.6955079 -2.207024E-08

v 1.298448 -1.516155 2.356943
vt 0.3134829 0.3993136
vn 0.7190607 -0.694947 -0.0006280374

v -1.221594 -4.119571 -2.14456
vt 0.7889501 0.02855951
vn 0.7190607 -0.694947 -0.0006280374

v -1.219769 -4.124584 1.6723
vt 0.3828269 0.02624786
vn 0.7196023 -0.6943853 -0.001256052

v 1.298448 -1.516155 2.356943
vt 0.3134829 0.3993136
vn 0.5862589 -0.68111 0.4386225

v 0.04709311 -1.516155 4.029492
vt 0.067976 0.3166404
vn 0.5862589 -0.68111 0.4386225

v -1.219769 -4.124584 1.6723
vt 0.3828269 0.02624786
vn 0.5862589 -0.68111 0.4386225

v -1.219769 -4.124584 1.6723
vt 0.3828269 0.02624786
vn 0.4888597 -0.7035432 0.5157937

v 0.04709311 -1.516155 4.029492
vt 0.067976 0.3166404
vn 0.4888597 -0.7035432 0.5157937

v -0.6982245 -2.034042 4.029492
vt 0.06876278 0.2025862
vn 0.4888597 -0.7035432 0.5157937

v -1.87754 -2.034041 -2.14456
vt 0.8140519 0.4237384
vn -0.9135085 -0.2873191 -0.2880103

v -1.508648 -1.775098 -3.57293
vt 0.9753582 0.4350414
vn -0.9135085 -0.2873191 -0.2880103

v -1.221594 -4.119571 -2.14456
vt 0.8123218 0.6331248
vn -0.9135085 -0.2873191 -0.2880103

v 1.298448 -1.516155 -3.085119
vt 0.8890381 0.3995214
vn 0.6172302 -0.7156054 -0.3270104

v -1.221594 -4.119571 -2.14456
vt 0.7889501 0.02855951
vn 0.6172302 -0.7156054 -0.3270104

v 0.7397903 -1.775098 -3.57293
vt 0.9532976 0.3678755
vn 0.6172302 -0.7156054 -0.3270104

v -1.219769 -4.124584 1.6723
vt 0.4092698 0.6308249
vn -0.6107167 -0.6676555 0.4257479

v -1.861953 -2.034041 4.029492
vt 0.009333253 0.4186211
vn -0.6107167 -0.6676555 0.4257479

v -1.867753 -2.034041 1.6723
vt 0.4092166 0.4205252
vn -0.9551656 -0.2960628 0.002350117

# 23 vertice(s).

f 156/156/156 157/157/157 158/158/158
f 157/157/157 159/159/159 158/158/158
f 160/160/160 161/161/161 162/162/162
f 161/161/161 163/163/163 162/162/162
f 164/164/164 165/165/165 166/166/166
f 167/167/167 168/168/168 169/169/169
f 170/170/170 171/171/171 172/172/172
f 173/173/173 174/174/174 175/175/175
f 176/176/176 177/177/177 178/178/178
# 27 indices; 9 primitives.

# 1 primitive groups.

# 2 parts.

