mtllib LOD3.mtl

g LOD2_Texture
usemtl LOD2_Texture

v -1.352529 -0.8546205 11.41671
vt 0.5239498 0.5556116
vn -0.9074546 -0.4034954 0.1171225

v -2.965406 -1.886528 -3.267569
vt 0.5249568 0.3709306
vn -0.9074546 -0.4034954 0.1171225

v -1.301033 -6.734045 -0.649823
vt 0.6164841 0.4339349
vn -0.9074546 -0.4034954 0.1171225

v 1.509384 -0.6865503 -7.270146
vt 0.3791594 0.2731985
vn 0.8907678 -0.4342486 0.1340184

v -1.352529 -0.8546205 11.41671
vt 0.3797312 0.6947868
vn 0.8907678 -0.4342486 0.1340184

v -1.301033 -6.734045 -0.649823
vt 0.4753325 0.434968
vn 0.8907678 -0.4342486 0.1340184

v 1.509384 -0.6865503 -7.270146
vt 0.3204283 0.7978876
vn -0.3924249 -0.7205538 -0.5716685

v -1.301033 -6.734045 -0.649823
vt 0.3842244 0.8348819
vn -0.3924249 -0.7205538 -0.5716685

v -2.965406 -1.886528 -3.267569
vt 0.3665904 0.870425
vn -0.3924249 -0.7205538 -0.5716685

v 1.509384 -0.6865503 -7.270146
vt 0.3224512 0.8105894
vn -0.182338 0.9829788 -0.02248431

v -2.965406 -1.886528 -3.267569
vt 0.3841998 0.8809198
vn -0.182338 0.9829788 -0.02248431

v -1.352529 -0.8546205 11.41671
vt 0.5947826 0.8415523
vn -0.182338 0.9829788 -0.02248431

# 12 vertice(s).

f 1/1/1 2/2/2 3/3/3
f 4/4/4 5/5/5 6/6/6
f 7/7/7 8/8/8 9/9/9
f 10/10/10 11/11/11 12/12/12
# 12 indices; 4 primitives.

# 1 primitive groups.

# 1 parts.

