mtllib LOD3-UVFlip.mtl

g LOD2_Texture
usemtl LOD2_Texture

v -1.352529 -0.8546205 11.41671
vt 0.5239498 0.4443884
vn -0.9074546 -0.4034954 0.1171225

v -2.965406 -1.886528 -3.267569
vt 0.5249568 0.6290694
vn -0.9074546 -0.4034954 0.1171225

v -1.301033 -6.734045 -0.649823
vt 0.6164841 0.5660651
vn -0.9074546 -0.4034954 0.1171225

v 1.509384 -0.6865503 -7.270146
vt 0.3791594 0.7268015
vn 0.8907678 -0.4342486 0.1340184

v -1.352529 -0.8546205 11.41671
vt 0.3797312 0.3052132
vn 0.8907678 -0.4342486 0.1340184

v -1.301033 -6.734045 -0.649823
vt 0.4753325 0.565032
vn 0.8907678 -0.4342486 0.1340184

v 1.509384 -0.6865503 -7.270146
vt 0.3204283 0.2021124
vn -0.3924249 -0.7205538 -0.5716685

v -1.301033 -6.734045 -0.649823
vt 0.3842244 0.1651181
vn -0.3924249 -0.7205538 -0.5716685

v -2.965406 -1.886528 -3.267569
vt 0.3665904 0.1295749
vn -0.3924249 -0.7205538 -0.5716685

v 1.509384 -0.6865503 -7.270146
vt 0.3224512 0.1894106
vn -0.182338 0.9829788 -0.02248431

v -2.965406 -1.886528 -3.267569
vt 0.3841998 0.1190802
vn -0.182338 0.9829788 -0.02248431

v -1.352529 -0.8546205 11.41671
vt 0.5947826 0.1584477
vn -0.182338 0.9829788 -0.02248431

# 12 vertice(s).

f 1/1/1 2/2/2 3/3/3
f 4/4/4 5/5/5 6/6/6
f 7/7/7 8/8/8 9/9/9
f 10/10/10 11/11/11 12/12/12
# 12 indices; 4 primitives.

# 1 primitive groups.

# 1 parts.

