mtllib LOD3.mtl

g LOD2_Texture
usemtl LOD2_Texture

v 3.542659E-05 -1.696664 -1.78727
vt 0.7537704 0.4176448
vn 0.4215692 -0.9050198 -0.05673314

v 5.87398 1.095013 -2.672965
vt 0.8682027 0.3778971
vn 0.4215692 -0.9050198 -0.05673314

v 2.90385 -1.079145 9.939424
vt 0.8236598 0.6998847
vn 0.4215692 -0.9050198 -0.05673314

v 5.87398 1.095013 -2.672965
vt 0.8682027 0.3778971
vn 1.845332E-07 -0.3024084 -0.9531785

v 3.542659E-05 -1.696664 -1.78727
vt 0.7537704 0.4176448
vn 1.845332E-07 -0.3024084 -0.9531785

v -5.873909 1.094982 -2.672957
vt 0.6393379 0.3778973
vn 1.845332E-07 -0.3024084 -0.9531785

v 2.90385 -1.079145 9.939424
vt 0.8236598 0.6998847
vn -8.973169E-11 -0.9996889 -0.0249411

v 0.1899752 -1.132448 12.07591
vt 0.7485181 0.7410733
vn -8.973169E-11 -0.9996889 -0.0249411

v -2.903779 -1.079145 9.939424
vt 0.6838809 0.6998847
vn -8.973169E-11 -0.9996889 -0.0249411

v 0.1899752 -1.132448 12.07591
vt 0.2470006 0.7517059
vn -0.1585494 0.9542809 0.2533969

v 3.542659E-05 3.279174 -4.656896
vt 0.2495642 0.3531765
vn -0.2155557 0.9465991 0.2397622

v -2.903779 -1.079145 9.939424
vt 0.1740623 0.7072647
vn -0.2155557 0.9465991 0.2397622

v -5.873909 1.094982 -2.672957
vt 0.1081891 0.4009262
vn -0.2718087 0.9356092 0.2252897

v -5.873909 1.094982 -2.672957
vt 0.1620743 0.3640649
vn -0.3545756 0.9347992 -0.020654

v 3.542659E-05 3.279174 -4.656896
vt 0.2495642 0.3531765
vn -0.3545756 0.9347992 -0.020654

v -2.805786 2.008434 -14.00186
vt 0.1820333 0.1282604
vn -0.3545756 0.9347992 -0.020654

v 5.87398 1.095013 -2.672965
vt 0.8682027 0.3778971
vn 2.582191E-06 -0.9969195 -0.07843144

v -5.873909 1.094982 -2.672957
vt 0.6393379 0.3778973
vn -0.001965024 -0.9967986 -0.07992943

v 2.805856 1.986292 -14.00186
vt 0.8228161 0.1298612
vn -0.001965024 -0.9967986 -0.07992943

v -2.805786 2.008434 -14.00186
vt 0.6862249 0.1294298
vn -0.003932618 -0.9966716 -0.08142694

v 0.1899752 -1.132448 12.07591
vt 0.2465977 0.7510298
vn 0.1773361 0.9521255 0.2490159

v 2.90385 -1.079145 9.939424
vt 0.3194536 0.704483
vn 0.2248445 0.9450215 0.2374432

v 3.542659E-05 3.279174 -4.656896
vt 0.2495642 0.3531765
vn 0.2248445 0.9450215 0.2374432

v 5.87398 1.095013 -2.672965
vt 0.3909392 0.400926
vn 0.271804 0.9356103 0.2252909

v 2.805856 1.986292 -14.00186
vt 0.3170952 0.1282604
vn 0.3551498 0.9345347 -0.02265994

v 3.542659E-05 3.279174 -4.656896
vt 0.2495642 0.3531765
vn 0.3551498 0.9345347 -0.02265994

v 5.87398 1.095013 -2.672965
vt 0.337054 0.3640649
vn 0.3551498 0.9345347 -0.02265994

v -2.805786 2.008434 -14.00186
vt 0.1820333 0.1282604
vn 0.003909132 0.9907159 -0.1358925

v 3.542659E-05 3.279174 -4.656896
vt 0.2495642 0.3531765
vn 0.003909132 0.9907159 -0.1358925

v 2.805856 1.986292 -14.00186
vt 0.3170952 0.1282604
vn 0.003909132 0.9907159 -0.1358925

v 3.542659E-05 -1.696664 -1.78727
vt 0.7537704 0.4176448
vn -0.4215654 -0.9050215 -0.05673211

v -2.903779 -1.079145 9.939424
vt 0.6838809 0.6998847
vn -0.4215654 -0.9050215 -0.05673211

v -5.873909 1.094982 -2.672957
vt 0.6393379 0.3778973
vn -0.4215654 -0.9050215 -0.05673211

v 2.90385 -1.079145 9.939424
vt 0.8236598 0.6998847
vn 2.093739E-09 -0.9986164 0.05258639

v -2.903779 -1.079145 9.939424
vt 0.6838809 0.6998847
vn 2.093739E-09 -0.9986164 0.05258639

v 3.542659E-05 -1.696664 -1.78727
vt 0.7537704 0.4176448
vn 2.093739E-09 -0.9986164 0.05258639

v -2.805786 2.008434 -14.00186
vt 0.6862249 0.1294298
vn 0.5437566 -0.839177 -0.01052091

v -3.290028 1.634037 -9.166231
vt 0.6745846 0.2400467
vn 0.5437566 -0.839177 -0.01052091

v -6.755655 -0.5851483 -11.27332
vt 0.5911733 0.189333
vn 0.5437566 -0.839177 -0.01052091

v 3.290099 1.634037 -9.166233
vt 0.8329561 0.2400467
vn -0.5422198 -0.8402083 -0.006907385

v 2.805856 1.986292 -14.00186
vt 0.8228161 0.1298612
vn -0.5422198 -0.8402083 -0.006907385

v 6.755724 -0.585146 -11.27332
vt 0.9163674 0.1893331
vn -0.5422198 -0.8402083 -0.006907385

v 6.755724 -0.585146 -11.27332
vt 0.9155431 0.1888168
vn 0.5422198 0.8402084 0.006907398

v 2.805856 1.986292 -14.00186
vt 0.8271061 0.1359482
vn 0.5422198 0.8402084 0.006907398

v 3.290099 1.634037 -9.166233
vt 0.8331852 0.2401879
vn 0.5422198 0.8402084 0.006907398

v -2.805786 2.008434 -14.00186
vt 0.6846203 0.1300268
vn -0.5437566 0.839177 0.01052092

v -6.755655 -0.5851483 -11.27332
vt 0.5941739 0.1901106
vn -0.5437566 0.839177 0.01052092

v -3.290028 1.634037 -9.166231
vt 0.6759576 0.2386656
vn -0.5437566 0.839177 0.01052092

# 48 vertice(s).

f 1/1/1 2/2/2 3/3/3
f 4/4/4 5/5/5 6/6/6
f 7/7/7 8/8/8 9/9/9
f 10/10/10 11/11/11 12/12/12
f 13/13/13 12/12/12 11/11/11
f 14/14/14 15/15/15 16/16/16
f 17/17/17 18/18/18 19/19/19
f 20/20/20 19/19/19 18/18/18
f 21/21/21 22/22/22 23/23/23
f 24/24/24 23/23/23 22/22/22
f 25/25/25 26/26/26 27/27/27
f 28/28/28 29/29/29 30/30/30
f 31/31/31 32/32/32 33/33/33
f 34/34/34 35/35/35 36/36/36
f 37/37/37 38/38/38 39/39/39
f 40/40/40 41/41/41 42/42/42
f 43/43/43 44/44/44 45/45/45
f 46/46/46 47/47/47 48/48/48
# 54 indices; 18 primitives.

# 1 primitive groups.

# 1 parts.

