mtllib LOD2-UVFlip.mtl

g PulsarGunUV
usemtl PulsarGunUV

v -1.017631 3.067628 2.292395
vt 0.5841652 0.09632364
vn -0.9952087 0.09670576 -0.01440634

v -1.001104 4.175209 -6.819478
vt 0.229412 0.1335268
vn -0.9952087 0.09670576 -0.01440634

v -1.001104 0.5422367 -8.568453
vt 0.1613192 0.01149678
vn -0.9952087 0.09670576 -0.01440634

v -1.347404 0.5422358 -4.608063
vt 0.3155091 0.01149675
vn -0.9952087 0.09670576 -0.01440634

v -1.347404 0.5422358 3.121659
vt 0.616451 0.01149675
vn -0.9952087 0.09670576 -0.01440634

v -1.347404 0.5422358 -4.608063
vt 0.01344231 0.1735269
vn -1.074157E-07 -0.8575214 -0.5144482

v 1.346999 0.5422358 -4.608063
vt 0.1249755 0.1734738
vn -1.074157E-07 -0.8575214 -0.5144482

v 1.347418 -8.204681E-08 -3.704224
vt 0.1250137 0.2171045
vn -1.074157E-07 -0.8575214 -0.5144482

v -1.347404 -7.255148E-08 -3.704223
vt 0.01346317 0.2171576
vn -1.074157E-07 -0.8575214 -0.5144482

v 3.621783 -9.006064E-08 -1.582616
vt 0.3971226 0.7390903
vn 0.2318944 0.9727409 -9.067629E-06

v 1.346999 0.5422358 -4.608063
vt 0.4458324 0.7915553
vn 0.2318944 0.9727409 -9.067629E-06

v 1.347418 0.5422358 3.121659
vt 0.4458324 0.5954504
vn 0.2318944 0.9727409 -9.067629E-06

v 3.621783 -9.006064E-08 1.417797
vt 0.3971262 0.6386747
vn 0.2318944 0.9727409 -9.067629E-06

v -1.347404 -7.255148E-08 -3.704223
vt 0.9013745 0.9828333
vn -0.4326519 -0.773108 -0.4638064

v -3.621785 -6.453759E-08 -1.582614
vt 0.9013745 0.7932433
vn -0.4326519 -0.773108 -0.4638064

v -1.347404 0.5422358 -4.608063
vt 0.5084676 0.8838012
vn -0.4326519 -0.773108 -0.4638064

v -1.017631 3.067628 2.292395
vt 0.9077574 0.1254233
vn 8.444046E-09 0.9926932 0.1206653

v 1.017647 3.067628 2.292394
vt 0.9810696 0.1253986
vn 8.444046E-09 0.9926932 0.1206653

v 1.028073 4.175209 -6.819478
vt 0.9814518 0.5121239
vn 8.444046E-09 0.9926932 0.1206653

v -1.001104 4.175209 -6.819478
vt 0.9083484 0.5120201
vn 8.444046E-09 0.9926932 0.1206653

v 1.028073 0.5422358 -8.568453
vt 0.9814315 0.6884902
vn 3.270599E-08 0.4337685 -0.9010243

v -1.001104 0.5422367 -8.568453
vt 0.90834 0.6884959
vn 3.270599E-08 0.4337685 -0.9010243

v -1.001104 4.175209 -6.819478
vt 0.9083484 0.5120201
vn 3.270599E-08 0.4337685 -0.9010243

v 1.028073 4.175209 -6.819478
vt 0.9814518 0.5121239
vn 3.270599E-08 0.4337685 -0.9010243

v 1.346999 0.5422358 -4.608063
vt 0.3155091 0.01149675
vn 0.9955889 0.09307152 -0.01185219

v 1.028073 0.5422358 -8.568453
vt 0.1613192 0.01149675
vn 0.9955889 0.09307152 -0.01185219

v 1.028073 4.175209 -6.819478
vt 0.229412 0.1335268
vn 0.9955889 0.09307152 -0.01185219

v 1.017647 3.067628 2.292394
vt 0.5841652 0.09632364
vn 0.9955889 0.09307152 -0.01185219

v 1.347418 0.5422358 3.121659
vt 0.616451 0.01149675
vn 0.9955889 0.09307152 -0.01185219

v -1.017631 3.067628 2.292395
vt 0.9077574 0.1254233
vn 1.303715E-07 0.3119809 0.9500884

v -1.347404 0.5422358 3.121659
vt 0.8929024 0.01587503
vn 1.303715E-07 0.3119809 0.9500884

v 1.347418 0.5422358 3.121659
vt 0.9965478 0.01592508
vn 1.303715E-07 0.3119809 0.9500884

v 1.017647 3.067628 2.292394
vt 0.9810696 0.1253986
vn 1.303715E-07 0.3119809 0.9500884

v 1.500199 -8.258514E-08 3.539409
vt 0.9013746 0.7932433
vn 0.567318 0.5969161 0.5673107

v 3.621783 -9.006064E-08 1.417797
vt 0.9013746 0.9828332
vn 0.567318 0.5969161 0.5673107

v 1.347418 0.5422358 3.121659
vt 0.9512442 0.8043956
vn 0.567318 0.5969161 0.5673107

v -1.500201 -7.201309E-08 3.539409
vt 0.9013745 0.9828332
vn -5.531866E-09 0.6103031 0.792168

v 1.500199 -8.258514E-08 3.539409
vt 0.9013745 0.7932433
vn -5.531866E-09 0.6103031 0.792168

v 1.347418 0.5422358 3.121659
vt 0.9512443 0.8043957
vn -5.531866E-09 0.6103031 0.792168

v -1.347404 0.5422358 3.121659
vt 0.9512443 0.9716808
vn -5.531866E-09 0.6103031 0.792168

v -3.621785 -6.453759E-08 1.417798
vt 0.9013746 0.9828332
vn -0.5673121 0.5969275 0.5673047

v -1.500201 -7.201309E-08 3.539409
vt 0.9013746 0.7932433
vn -0.5673121 0.5969275 0.5673047

v -1.347404 0.5422358 3.121659
vt 0.9512442 0.8043956
vn -0.5673121 0.5969275 0.5673047

v 1.028073 0.5422358 -8.568453
vt 0.1116953 0.009539753
vn -2.018966E-07 -1 -1.130326E-07

v 1.346999 0.5422358 -4.608063
vt 0.1249755 0.1734738
vn -2.018966E-07 -1 -1.130326E-07

v -1.347404 0.5422358 -4.608063
vt 0.01344231 0.1735269
vn -2.018966E-07 -1 -1.130326E-07

v -1.001104 0.5422367 -8.568453
vt 0.02769902 0.009579569
vn -2.018966E-07 -1 -1.130326E-07

v 1.346999 0.5422358 -4.608063
vt 0.5081912 0.883755
vn 0.4327666 -0.7729719 -0.4639261

v 3.621783 -9.006064E-08 -1.582616
vt 0.9013745 0.7932433
vn 0.4327666 -0.7729719 -0.4639261

v 1.347418 -8.204681E-08 -3.704224
vt 0.5456048 0.9058164
vn 0.4327666 -0.7729719 -0.4639261

v -1.347404 0.5422358 3.121659
vt 0.44649 0.595454
vn -0.2319105 0.9727371 -2.171252E-10

v -1.347404 0.5422358 -4.608063
vt 0.4464989 0.7915593
vn -0.2319105 0.9727371 -2.171252E-10

v -3.621785 -6.453759E-08 -1.582614
vt 0.3977905 0.7391004
vn -0.2319105 0.9727371 -2.171252E-10

v -3.621785 -6.453759E-08 1.417798
vt 0.397787 0.6386847
vn -0.2319105 0.9727371 -2.171252E-10

# 54 vertice(s).

f 1/1/1 2/2/2 3/3/3
f 1/1/1 3/3/3 4/4/4
f 1/1/1 4/4/4 5/5/5
f 6/6/6 7/7/7 8/8/8
f 6/6/6 8/8/8 9/9/9
f 10/10/10 11/11/11 12/12/12
f 10/10/10 12/12/12 13/13/13
f 14/14/14 15/15/15 16/16/16
f 17/17/17 18/18/18 19/19/19
f 17/17/17 19/19/19 20/20/20
f 21/21/21 22/22/22 23/23/23
f 21/21/21 23/23/23 24/24/24
f 25/25/25 26/26/26 27/27/27
f 25/25/25 27/27/27 28/28/28
f 25/25/25 28/28/28 29/29/29
f 30/30/30 31/31/31 32/32/32
f 30/30/30 32/32/32 33/33/33
f 34/34/34 35/35/35 36/36/36
f 37/37/37 38/38/38 39/39/39
f 37/37/37 39/39/39 40/40/40
f 41/41/41 42/42/42 43/43/43
f 44/44/44 45/45/45 46/46/46
f 44/44/44 46/46/46 47/47/47
f 48/48/48 49/49/49 50/50/50
f 51/51/51 52/52/52 53/53/53
f 51/51/51 53/53/53 54/54/54
# 78 indices; 26 primitives.

# 1 primitive groups.

# 1 parts.

