mtllib Goblins.mtl

g PulsarGunUV
usemtl PulsarGunUV

v -0.8184604 2.867085 -3.112217
vt 0.3930261 0.1928142
vn -4.114856E-08 0 -1

v -0.8184604 2.043906 -3.112217
vt 0.4456084 0.1928142
vn -4.114856E-08 0 -1

v -3.499572 2.043906 -3.112217
vt 0.4456084 0.0175193
vn -4.114856E-08 0 -1

v -3.499572 2.867085 -3.112217
vt 0.3930261 0.0175193
vn -4.114856E-08 0 -1

v -0.8184604 2.043906 -3.112217
vt 0.3932735 0.1928142
vn 9.405566E-09 -0.7071068 -0.7071068

v -0.8184604 1.461831 -2.530142
vt 0.4458548 0.1928142
vn 9.405566E-09 -0.7071068 -0.7071068

v -3.499572 1.461831 -2.530142
vt 0.4458548 0.0175193
vn 9.405566E-09 -0.7071068 -0.7071068

v -3.499572 2.043906 -3.112217
vt 0.3932735 0.0175193
vn 9.405566E-09 -0.7071068 -0.7071068

v -0.8184604 1.461831 -2.530142
vt 0.3929916 0.1928142
vn 0 -1 -4.871277E-08

v -0.8184604 1.461831 -1.706963
vt 0.4455741 0.1928142
vn 0 -1 -4.871277E-08

v -3.499572 1.461831 -1.706963
vt 0.4455741 0.0175193
vn 0 -1 -4.871277E-08

v -3.499572 1.461831 -2.530142
vt 0.3929916 0.0175193
vn 0 -1 -4.871277E-08

v -0.8184604 1.461831 -1.706963
vt 0.3932337 0.1928142
vn 6.869779E-09 -0.7071066 0.7071069

v -0.8184604 2.043906 -1.124888
vt 0.4458155 0.1928142
vn 6.869779E-09 -0.7071066 0.7071069

v -3.499572 2.043906 -1.124888
vt 0.4458155 0.0175193
vn 6.869779E-09 -0.7071066 0.7071069

v -3.499572 1.461831 -1.706963
vt 0.3932337 0.0175193
vn 6.869779E-09 -0.7071066 0.7071069

v -0.8184604 2.043906 -1.124888
vt 0.3931698 0.1928142
vn 2.853332E-09 1.448159E-07 1

v -0.8184604 2.867085 -1.124888
vt 0.4457516 0.1928142
vn 2.853332E-09 1.448159E-07 1

v -3.499572 2.867085 -1.124888
vt 0.4457516 0.0175193
vn 2.853332E-09 1.448159E-07 1

v -3.499572 2.043906 -1.124888
vt 0.3931698 0.0175193
vn 2.853332E-09 1.448159E-07 1

v -0.8184604 2.867085 -1.124888
vt 0.3930555 0.1928142
vn -8.850138E-09 0.7071065 0.7071071

v -0.8184604 3.44916 -1.706963
vt 0.4456375 0.1928142
vn -8.850138E-09 0.7071065 0.7071071

v -3.499572 3.44916 -1.706963
vt 0.4456375 0.0175193
vn -8.850138E-09 0.7071065 0.7071071

v -3.499572 2.867085 -1.124888
vt 0.3930555 0.0175193
vn -8.850138E-09 0.7071065 0.7071071

v -0.8184604 3.44916 -1.706963
vt 0.3932349 0.1928272
vn 0 1 1.143357E-07

v -0.8184604 3.44916 -2.530143
vt 0.4458169 0.1928272
vn 0 1 1.143357E-07

v -3.499572 3.44916 -2.530143
vt 0.4458169 0.01753193
vn 0 1 1.143357E-07

v -3.499572 3.44916 -1.706963
vt 0.3932349 0.01753193
vn 0 1 1.143357E-07

v -0.8184604 3.44916 -2.530143
vt 0.4455716 0.1928272
vn -4.301566E-09 0.7071064 -0.7071072

v -0.8184604 2.867085 -3.112217
vt 0.3929894 0.1928272
vn -4.301566E-09 0.7071064 -0.7071072

v -3.499572 2.867085 -3.112217
vt 0.3929894 0.01753193
vn -4.301566E-09 0.7071064 -0.7071072

v -3.499572 3.44916 -2.530143
vt 0.4455716 0.01753193
vn -4.301566E-09 0.7071064 -0.7071072

v -0.8184604 2.867085 -3.112217
vt 0.05000973 0.1427308
vn 1 -1.780768E-08 0

v -0.8184604 3.44916 -2.530143
vt 0.06716715 0.1598889
vn 1 -1.780768E-08 0

v -0.8184604 3.44916 -1.706963
vt 0.06716715 0.1841539
vn 1 -1.780768E-08 0

v -0.8184604 2.867085 -1.124888
vt 0.05000973 0.2013122
vn 1 -1.780768E-08 0

v -0.8184604 2.043906 -1.124888
vt 0.02574458 0.2013122
vn 1 -1.780768E-08 0

v -0.8184604 1.461831 -1.706963
vt 0.008586507 0.1841539
vn 1 -1.780768E-08 0

v -0.8184604 1.461831 -2.530142
vt 0.008586507 0.1598889
vn 1 -1.780768E-08 0

v -0.8184604 2.043906 -3.112217
vt 0.02574458 0.1427308
vn 1 -1.780768E-08 0

v -3.499572 3.44916 -1.706963
vt 0.06706189 0.1841539
vn -1 -3.694651E-08 0

v -3.499572 3.44916 -2.530143
vt 0.06706189 0.1598889
vn -1 -3.694651E-08 0

v -3.499572 2.867085 -3.112217
vt 0.04990387 0.1427308
vn -1 -3.694651E-08 0

v -3.499572 2.043906 -3.112217
vt 0.02563896 0.1427308
vn -1 -3.694651E-08 0

v -3.499572 1.461831 -2.530142
vt 0.008480768 0.1598889
vn -1 -3.694651E-08 0

v -3.499572 1.461831 -1.706963
vt 0.008480768 0.1841539
vn -1 -3.694651E-08 0

v -3.499572 2.043906 -1.124888
vt 0.02563896 0.2013122
vn -1 -3.694651E-08 0

v -3.499572 2.867085 -1.124888
vt 0.04990387 0.2013122
vn -1 -3.694651E-08 0

v 3.946716 2.417682 0.2558054
vt 0.5955815 0.2583879
vn 0.6931272 -6.4295E-08 0.7208154

v 4.332594 2.516137 -0.1152505
vt 0.5895513 0.2810759
vn 0.6931272 -6.4295E-08 0.7208154

v 4.332594 3.310403 -0.1152505
vt 0.5407515 0.2813396
vn 0.6931272 -6.4295E-08 0.7208154

v 3.946716 3.408858 0.2558054
vt 0.5347023 0.2586969
vn 0.6931272 -6.4295E-08 0.7208154

v 3.946716 3.408858 0.2558054
vt 0.5347023 0.2586969
vn 0.305245 0.9521627 -0.01455052

v 4.332594 3.310403 -0.1152505
vt 0.5407515 0.2813396
vn 0.305245 0.9521627 -0.01455052

v 4.161787 3.310403 -1.675102
vt 0.5407516 0.376663
vn 0.305245 0.9521627 -0.01455052

v 3.946716 3.408858 -1.767598
vt 0.5347025 0.3823482
vn 0.305245 0.9521627 -0.01455052

v 3.946716 3.408858 -1.767598
vt 0.5347025 0.3823482
vn 0.3950835 5.899807E-08 -0.9186452

v 4.161787 3.310403 -1.675102
vt 0.5407516 0.376663
vn 0.3950835 5.899807E-08 -0.9186452

v 4.161787 2.516137 -1.675102
vt 0.5895514 0.3763993
vn 0.3950835 5.899807E-08 -0.9186452

v 3.946716 2.417682 -1.767598
vt 0.5956006 0.382019
vn 0.3950835 5.899807E-08 -0.9186452

v 3.946716 2.417682 -1.767598
vt 0.5956006 0.382019
vn 0.3052455 -0.9521625 -0.01455041

v 4.161787 2.516137 -1.675102
vt 0.5895514 0.3763993
vn 0.3052455 -0.9521625 -0.01455041

v 4.332594 2.516137 -0.1152505
vt 0.5895513 0.2810759
vn 0.3052455 -0.9521625 -0.01455041

v 3.946716 2.417682 0.2558054
vt 0.5955815 0.2583879
vn 0.3052455 -0.9521625 -0.01455041

v 4.332594 2.516137 -0.1152505
vt 0.5895513 0.2810759
vn 0.994058 1.267492E-07 -0.1088514

v 4.161787 2.516137 -1.675102
vt 0.5895514 0.3763993
vn 0.994058 1.267492E-07 -0.1088514

v 4.161787 3.310403 -1.675102
vt 0.5407516 0.376663
vn 0.994058 1.267492E-07 -0.1088514

v 4.332594 3.310403 -0.1152505
vt 0.5407515 0.2813396
vn 0.994058 1.267492E-07 -0.1088514

v 1.952137 4.322046 -2.568472
vt 0.8560909 0.04618794
vn -6.942758E-09 0.9754733 -0.2201178

v 3.483202 4.322046 -2.568472
vt 0.762527 0.04616386
vn -6.942758E-09 0.9754733 -0.2201178

v 3.187733 4.236262 -2.948633
vt 0.7805788 0.06309438
vn -6.942758E-09 0.9754733 -0.2201178

v 2.247606 4.236262 -2.948633
vt 0.8380303 0.06310916
vn -6.942758E-09 0.9754733 -0.2201178

v 2.247606 4.236262 -2.948633
vt 0.8380303 0.06310916
vn 8.233253E-08 0.7252187 -0.6885186

v 3.187733 4.236262 -2.948633
vt 0.7805788 0.06309438
vn 8.233253E-08 0.7252187 -0.6885186

v 3.187733 3.756304 -3.454174
vt 0.7805697 0.09847033
vn 8.233253E-08 0.7252187 -0.6885186

v 2.247606 3.756304 -3.454174
vt 0.8380213 0.09848517
vn 8.233253E-08 0.7252187 -0.6885186

v 2.247606 3.756304 -3.454174
vt 0.8380213 0.09848517
vn 2.269394E-10 0.2165136 -0.9762796

v 3.187733 3.756304 -3.454174
vt 0.7805697 0.09847033
vn 2.269394E-10 0.2165136 -0.9762796

v 3.483202 3.407784 -3.531466
vt 0.7625095 0.1135891
vn 2.269394E-10 0.2165136 -0.9762796

v 1.952137 3.407784 -3.531466
vt 0.8560736 0.1136133
vn 2.269394E-10 0.2165136 -0.9762796

v 3.483202 4.322046 -2.568472
vt 0.762527 0.04616386
vn 0.5596544 0.6010078 -0.5705933

v 3.483202 3.407784 -3.531466
vt 0.7625095 0.1135891
vn 0.5596544 0.6010078 -0.5705933

v 3.187733 3.756304 -3.454174
vt 0.7805697 0.09847033
vn 0.5596544 0.6010078 -0.5705933

v 3.187733 4.236262 -2.948633
vt 0.7805788 0.06309438
vn 0.5596544 0.6010078 -0.5705933

v 1.952137 3.407784 -3.531466
vt 0.8560736 0.1136133
vn -0.5596545 0.6010077 -0.5705932

v 1.952137 4.322046 -2.568472
vt 0.8560909 0.04618794
vn -0.5596545 0.6010077 -0.5705932

v 2.247606 4.236262 -2.948633
vt 0.8380303 0.06310916
vn -0.5596545 0.6010077 -0.5705932

v 2.247606 3.756304 -3.454174
vt 0.8380213 0.09848517
vn -0.5596545 0.6010077 -0.5705932

v 1.952137 4.558117 1.705313
vt 0.8762242 0.6238341
vn 1.554436E-08 0.9062665 0.4227069

v 3.483202 4.558117 1.705313
vt 0.781525 0.6238341
vn 1.554436E-08 0.9062665 0.4227069

v 3.187733 4.757703 1.277408
vt 0.7998003 0.6498507
vn 1.554436E-08 0.9062665 0.4227069

v 2.247606 4.757703 1.277408
vt 0.8579489 0.6498507
vn 1.554436E-08 0.9062665 0.4227069

v 2.247606 4.757703 1.277408
vt 0.8579489 0.6498507
vn 0 1 0.0001196037

v 3.187733 4.757703 1.277408
vt 0.7998003 0.6498507
vn 0 1 0.0001196037

v 3.187733 4.758033 -1.479343
vt 0.7998003 0.8174616
vn 0 1 0.0001196037

v 2.247606 4.758033 -1.479343
vt 0.8579489 0.8174616
vn 0 1 0.0001196037

v 2.247606 4.758033 -1.479343
vt 0.8579489 0.8174616
vn 2.366011E-08 0.8526208 -0.5225302

v 3.187733 4.758033 -1.479343
vt 0.7998003 0.8174616
vn 2.366011E-08 0.8526208 -0.5225302

v 3.483202 4.558537 -1.804865
vt 0.781525 0.8372534
vn 2.366011E-08 0.8526208 -0.5225302

v 1.952137 4.558537 -1.804865
vt 0.8762242 0.8372534
vn 2.366011E-08 0.8526208 -0.5225302

v 3.483202 4.558117 1.705313
vt 0.781525 0.6238341
vn 0.5596541 0.8287263 9.91745E-05

v 3.483202 4.558537 -1.804865
vt 0.781525 0.8372534
vn 0.5596541 0.8287263 9.91745E-05

v 3.187733 4.758033 -1.479343
vt 0.7998003 0.8174616
vn 0.5596541 0.8287263 9.91745E-05

v 3.187733 4.757703 1.277408
vt 0.7998003 0.6498507
vn 0.5596541 0.8287263 9.91745E-05

v 1.952137 4.558537 -1.804865
vt 0.8762242 0.8372534
vn -0.5596541 0.8287263 9.907858E-05

v 1.952137 4.558117 1.705313
vt 0.8762242 0.6238341
vn -0.5596541 0.8287263 9.907858E-05

v 2.247606 4.757703 1.277408
vt 0.8579489 0.6498507
vn -0.5596541 0.8287263 9.907858E-05

v 2.247606 4.758033 -1.479343
vt 0.8579489 0.8174616
vn -0.5596541 0.8287263 9.907858E-05

# 108 vertice(s).

f 1/1/1 2/2/2 3/3/3
f 1/1/1 3/3/3 4/4/4
f 5/5/5 6/6/6 7/7/7
f 5/5/5 7/7/7 8/8/8
f 9/9/9 10/10/10 11/11/11
f 9/9/9 11/11/11 12/12/12
f 13/13/13 14/14/14 15/15/15
f 13/13/13 15/15/15 16/16/16
f 17/17/17 18/18/18 19/19/19
f 17/17/17 19/19/19 20/20/20
f 21/21/21 22/22/22 23/23/23
f 21/21/21 23/23/23 24/24/24
f 25/25/25 26/26/26 27/27/27
f 25/25/25 27/27/27 28/28/28
f 29/29/29 30/30/30 31/31/31
f 29/29/29 31/31/31 32/32/32
f 33/33/33 34/34/34 35/35/35
f 33/33/33 35/35/35 36/36/36
f 33/33/33 36/36/36 37/37/37
f 33/33/33 37/37/37 38/38/38
f 33/33/33 38/38/38 39/39/39
f 33/33/33 39/39/39 40/40/40
f 41/41/41 42/42/42 43/43/43
f 41/41/41 43/43/43 44/44/44
f 41/41/41 44/44/44 45/45/45
f 41/41/41 45/45/45 46/46/46
f 41/41/41 46/46/46 47/47/47
f 41/41/41 47/47/47 48/48/48
f 49/49/49 50/50/50 51/51/51
f 49/49/49 51/51/51 52/52/52
f 53/53/53 54/54/54 55/55/55
f 53/53/53 55/55/55 56/56/56
f 57/57/57 58/58/58 59/59/59
f 57/57/57 59/59/59 60/60/60
f 61/61/61 62/62/62 63/63/63
f 61/61/61 63/63/63 64/64/64
f 65/65/65 66/66/66 67/67/67
f 65/65/65 67/67/67 68/68/68
f 69/69/69 70/70/70 71/71/71
f 69/69/69 71/71/71 72/72/72
f 73/73/73 74/74/74 75/75/75
f 73/73/73 75/75/75 76/76/76
f 77/77/77 78/78/78 79/79/79
f 77/77/77 79/79/79 80/80/80
f 81/81/81 82/82/82 83/83/83
f 81/81/81 83/83/83 84/84/84
f 85/85/85 86/86/86 87/87/87
f 85/85/85 87/87/87 88/88/88
f 89/89/89 90/90/90 91/91/91
f 89/89/89 91/91/91 92/92/92
f 93/93/93 94/94/94 95/95/95
f 93/93/93 95/95/95 96/96/96
f 97/97/97 98/98/98 99/99/99
f 97/97/97 99/99/99 100/100/100
f 101/101/101 102/102/102 103/103/103
f 101/101/101 103/103/103 104/104/104
f 105/105/105 106/106/106 107/107/107
f 105/105/105 107/107/107 108/108/108
# 174 indices; 58 primitives.

# 1 primitive groups.

# 1 parts.

