mtllib LOD2-UVFlip.mtl

g Hgn_PulsarCorvette_LOD2
usemtl Hgn_PulsarCorvette_LOD2

v 3.553676 4.31261 3.976726
vt 0.146215 0.1150928
vn 0 -0.1842856 0.9828727

v 1.174713 4.31261 3.976726
vt 0.1042975 0.1150928
vn 0 -0.1842856 0.9828727

v 2.447429 0.3773451 3.238876
vt 0.1267228 0.1844325
vn 0 -0.1842856 0.9828727

v 3.586921 4.319171 -3.631074
vt 0.1864907 0.1716625
vn 0.9624749 -0.2713415 0.00397189

v 3.553676 4.31261 3.976726
vt 0.3338777 0.1715354
vn 0.9624801 -0.2713233 0.003958376

v 2.450958 0.3160119 -1.840193
vt 0.2211856 0.09410872
vn 0.9624801 -0.2713233 0.003958376

v 2.447429 0.3773451 3.238876
vt 0.3195832 0.0952969
vn 0.9624853 -0.271305 0.003944861

v 2.450958 0.3160119 -1.840193
vt 0.126785 0.1855132
vn 0.003761828 -0.4092514 -0.912414

v 1.141464 4.296692 -3.631074
vt 0.1037116 0.1153733
vn 0.003761828 -0.4092514 -0.912414

v 3.586921 4.319171 -3.631074
vt 0.1468008 0.1149773
vn 0.003761828 -0.4092514 -0.912414

v 1.141464 4.296692 -3.631074
vt 0.1058457 0.221937
vn -0.009191565 0.9999557 -0.002052034

v 1.174713 4.31261 3.976726
vt 0.1063114 0.1120653
vn -0.004595836 0.9999893 -0.0005948348

v 3.586921 4.319171 -3.631074
vt 0.1550169 0.221937
vn -0.004595836 0.9999893 -0.0005948348

v 3.553676 4.31261 3.976726
vt 0.1545512 0.1120653
vn 0 0.9999996 0.000862378

v 1.141464 4.296692 -3.631074
vt 0.1864907 0.171227
vn -0.9505501 -0.3105339 0.004803985

v 2.450958 0.3160119 -1.840193
vt 0.2211856 0.09410872
vn -0.9509283 -0.3093865 0.003932639

v 1.174713 4.31261 3.976726
vt 0.3338777 0.1715354
vn -0.9509283 -0.3093865 0.003932639

v 2.447429 0.3773451 3.238876
vt 0.3195832 0.0952969
vn -0.9513043 -0.3082383 0.003061283

v -1.45237 -0.5158446 -3.895743
vt 0.01344231 0.1735269
vn 0 0 1

v -1.253639 0.1087704 -9.335544
vt 0.02050838 0.01545575
vn -1.045299E-07 -0.9934723 -0.1140736

v -1.45237 -0.5158446 -3.895743
vt 0.01346317 0.2171576
vn -3.504548E-08 -0.9934723 -0.1140736

v 1.651855 -0.5158446 -3.895744
vt 0.1250137 0.2171045
vn 0 0 1

v 0.0997428 -0.5158446 -3.895743
vt 0.06923822 0.2171311
vn -8.136839E-08 -0.9934723 -0.1140736

v 1.651855 -0.5158446 -3.895744
vt 0.1249755 0.1734738
vn -3.504546E-08 -0.9934723 -0.1140735

v 1.468693 0.1087699 -9.335544
vt 0.1183354 0.01540896
vn -1.045299E-07 -0.9934723 -0.1140735

v 1.651855 -0.5158446 -3.895744
vt 0.9013745 0.9828333
vn 0 0 1

v 1.651855 -0.5158446 -3.895744
vt 0.9512442 0.9716809
vn 0 0 1

v 1.82785 -0.5158446 4.448366
vt 0.9263094 0.7988194
vn 0 0 1

v -1.45237 -0.5158446 -3.895743
vt 0.9013745 0.9828333
vn 0 0 1

v -1.628384 -0.5158446 4.448365
vt 0.9263094 0.7988194
vn 0 0 1

v -1.45237 -0.5158446 -3.895743
vt 0.9512442 0.9716809
vn 0 0 1

v 1.468693 4.082321 -7.484278
vt 0.4742473 0.3633476
vn 0 0.9926165 0.1212948

v -1.253639 4.082321 -7.484278
vt 0.4372544 0.3633476
vn -0.0007742583 0.9925919 0.1214935

v 1.458297 2.810508 2.923615
vt 0.474106 0.146221
vn -0.0007742583 0.9925919 0.1214935

v -1.262436 2.806474 2.921897
vt 0.4371349 0.1462444
vn -0.001548516 0.9925667 0.1216922

v 1.468693 0.1087699 -9.335544
vt 0.4747097 0.3193689
vn 7.397126E-08 0.4223126 -0.9064503

v -1.253639 0.1087704 -9.335544
vt 0.4363355 0.3193689
vn 3.698563E-08 0.4223126 -0.9064503

v 1.468693 4.082321 -7.484278
vt 0.4747097 0.3753803
vn 3.698563E-08 0.4223126 -0.9064503

v -1.253639 4.082321 -7.484278
vt 0.4363355 0.3753803
vn 0 0.4223126 -0.9064503

v -1.628384 -0.5158446 4.448365
vt 0.4796007 0.19924
vn -0.994773 0.09993121 -0.02098414

v -1.262436 2.806474 2.921897
vt 0.4384079 0.2181664
vn -0.9972627 0.07350285 -0.00803592

v -1.45237 -0.5158446 -3.895743
vt 0.4796007 0.3026971
vn -0.9983758 0.05440199 -0.01691813

v -1.253639 4.082321 -7.484278
vt 0.4225889 0.3471906
vn -0.9993904 0.03158732 -0.01487114

v -1.253639 0.1087704 -9.335544
vt 0.4718563 0.3701441
vn -0.999269 0.01614437 -0.03465222

v -1.628384 -0.5158446 4.448365
vt 0.4340186 0.1541939
vn -1.253651E-07 0.4174997 0.9086771

v 1.82785 -0.5158446 4.448366
vt 0.4729941 0.1541939
vn -0.0005958891 0.417042 0.908887

v -1.262436 2.806474 2.921897
vt 0.4381454 0.1916592
vn -0.0005958891 0.417042 0.908887

v 1.458297 2.810508 2.923615
vt 0.4688267 0.1917047
vn -0.001191652 0.416584 0.9090964

v -1.628384 -0.5158446 4.448365
vt 0.9013745 0.9828332
vn 0 0 1

v -1.628384 -0.5158446 4.448365
vt 0.9512443 0.9716808
vn 0 0 1

v 1.82785 -0.5158446 4.448366
vt 0.4796007 0.19924
vn 0.9946764 0.1008902 -0.02097982

v 1.651855 -0.5158446 -3.895744
vt 0.4796007 0.3026971
vn 0.9984433 0.05358122 -0.01549288

v 1.458297 2.810508 2.923615
vt 0.4383579 0.2181452
vn 0.9973125 0.07290507 -0.007254406

v 1.468693 4.082321 -7.484278
vt 0.4225889 0.3471906
vn 0.9994726 0.02987384 -0.01273533

v 1.468693 0.1087699 -9.335544
vt 0.4718563 0.3701441
vn 0.999379 0.01488132 -0.03194122

# 55 vertice(s).

f 1/1/1 2/2/2 3/3/3
f 4/4/4 5/5/5 6/6/6
f 5/5/5 7/7/7 6/6/6
f 8/8/8 9/9/9 10/10/10
f 11/11/11 12/12/12 13/13/13
f 12/12/12 14/14/14 13/13/13
f 15/15/15 16/16/16 17/17/17
f 16/16/16 18/18/18 17/17/17
f 19/19/19 20/20/20 21/21/21
f 22/22/22 23/23/23 24/24/24
f 24/24/24 23/23/23 25/25/25
f 25/25/25 23/23/23 20/20/20
f 23/23/23 21/21/21 20/20/20
f 26/26/26 27/27/27 28/28/28
f 29/29/29 30/30/30 31/31/31
f 32/32/32 33/33/33 34/34/34
f 34/34/34 33/33/33 35/35/35
f 36/36/36 37/37/37 38/38/38
f 37/37/37 39/39/39 38/38/38
f 40/40/40 41/41/41 42/42/42
f 41/41/41 43/43/43 42/42/42
f 43/43/43 44/44/44 42/42/42
f 45/45/45 46/46/46 47/47/47
f 47/47/47 46/46/46 48/48/48
f 49/49/49 28/28/28 50/50/50
f 51/51/51 52/52/52 53/53/53
f 53/53/53 52/52/52 54/54/54
f 54/54/54 52/52/52 55/55/55
# 84 indices; 28 primitives.

# 1 primitive groups.

# 1 parts.

