mtllib LOD1-UVFlip.mtl

g PulsarGunUV
usemtl PulsarGunUV

v -2.95908 0.3794942 13.81562
vt 0.4365186 0.2716697
vn -2.773122E-07 0.9693135 0.2458278

v -2.959074 1.058781 11.25402
vt 0.4366726 0.4790168
vn 7.286233E-07 0.9932399 0.1160792

v -4.47442 0.6186767 11.25402
vt 0.5136424 0.4788136
vn -0.8012316 0.5863684 0.1191638

v -4.097731 0.1007009 13.81562
vt 0.5148758 0.2715293
vn -0.8204364 0.509202 0.2599952

v -2.016076 -0.9288378 13.81562
vt 0.5973342 0.2720412
vn 0.6305254 -0.7594168 0.1603865

v -1.759905 -1.177118 11.25402
vt 0.5979196 0.4787829
vn 0.6305254 -0.7594168 0.1603865

v -1.443741 -0.3245101 11.25402
vt 0.5564964 0.4788281
vn 0.9958622 -0.05533939 0.07208375

v -1.443741 0.6186767 11.25402
vt 0.5135416 0.4788348
vn 0.801231 0.5863697 0.119162

v -1.820411 0.1007009 13.81562
vt 0.5145795 0.2716871
vn 0.8204372 0.5092016 0.2599933

v -4.762524 -0.6447988 -2.970079
vt 0.2774624 0.9737245
vn -0.999117 -5.508892E-05 -0.04201607

v -4.92305 -0.7370138 0.8481183
vt 0.2796558 0.804861
vn -0.999117 -5.508892E-05 -0.04201607

v -4.923128 0.0119195 0.8481183
vt 0.2476753 0.8048978
vn -0.999117 -5.508892E-05 -0.04201607

v -4.762524 0.0119195 -2.970079
vt 0.2471497 0.973882
vn -0.999117 -5.508892E-05 -0.04201607

v -4.253622 0.4342465 -4.035234
vt 0.8402525 0.01132148
vn -2.276377E-08 0 -1

v -2.959074 0.7759914 -4.035234
vt 0.8552775 0.06823802
vn -2.276377E-08 0 -1

v -1.664526 0.4342465 -4.035234
vt 0.8402525 0.1251538
vn -2.276377E-08 0 -1

v -1.91004 -0.8943286 -4.035234
vt 0.7818406 0.1143597
vn -2.276377E-08 0 -1

v -4.008109 -0.8943286 -4.035234
vt 0.7818406 0.02211606
vn -2.276377E-08 0 -1

v -4.253622 -0.5525832 -4.035234
vt 0.7968656 0.01132148
vn -2.276377E-08 0 -1

v -1.533775 -0.4574099 11.08523
vt 0.06950939 0.3148006
vn 0.9193064 -0.3935425 -4.068923E-10

v -1.808829 -1.09993 11.10098
vt 0.1020135 0.3133771
vn 0.9193064 -0.3935425 -4.068923E-10

v -1.808829 -1.09993 3.096319
vt 0.1026763 0.6643769
vn 0.9193064 -0.3935425 -4.068923E-10

v -1.533775 -0.4574099 3.748517
vt 0.07006538 0.6367486
vn 0.9193064 -0.3935425 -4.068923E-10

v -4.38443 -0.4574099 11.08523
vt 0.06958711 0.3148199
vn -0.9193004 -0.3935567 -3.827542E-06

v -4.384367 -0.4574099 3.748517
vt 0.07002151 0.6356959
vn -0.9193004 -0.3935567 -3.827542E-06

v -4.109332 -1.09993 3.096319
vt 0.1026492 0.6642334
vn -0.9193004 -0.3935567 -3.827542E-06

v -4.109332 -1.09993 11.10098
vt 0.1020683 0.3134646
vn -0.9193004 -0.3935567 -3.827542E-06

v -1.533775 -0.4574099 3.748517
vt 0.07006538 0.6367486
vn 0.721799 -0.6032606 0.3392386

v -1.808829 -1.09993 3.096319
vt 0.1026763 0.6643769
vn 0.721799 -0.6032606 0.3392386

v -1.759905 -1.177118 2.949813
vt 0.1048183 0.6708794
vn 0.721799 -0.6032606 0.3392386

v -1.443741 -0.3245101 3.698433
vt 0.06312883 0.6391843
vn 0.721799 -0.6032606 0.3392386

v -1.443741 -0.3245101 3.698433
vt 0.06312883 0.6391843
vn 0.8279039 -0.56087 -4.425548E-10

v -1.443741 -0.3245101 11.25402
vt 0.0630585 0.3068851
vn 0.8279039 -0.56087 -4.425548E-10

v -1.533775 -0.4574099 11.08523
vt 0.06950939 0.3148006
vn 0.8279039 -0.56087 -4.425548E-10

v -1.533775 -0.4574099 3.748517
vt 0.07006538 0.6367486
vn 0.8279039 -0.56087 -4.425548E-10

v -1.533775 -0.4574099 11.08523
vt 0.06950939 0.3148006
vn 0.880138 -0.3513955 -0.3191837

v -1.443741 -0.3245101 11.25402
vt 0.0630585 0.3068851
vn 0.880138 -0.3513955 -0.3191837

v -1.759905 -1.177118 11.25402
vt 0.1044825 0.3056207
vn 0.880138 -0.3513955 -0.3191837

v -1.808829 -1.09993 11.10098
vt 0.1020135 0.3133771
vn 0.880138 -0.3513955 -0.3191837

v -4.38443 -0.4574099 11.08523
vt 0.06958711 0.3148199
vn -0.8801731 -0.3514411 -0.3190367

v -4.109332 -1.09993 11.10098
vt 0.1020683 0.3134646
vn -0.8801731 -0.3514411 -0.3190367

v -4.158244 -1.177118 11.25402
vt 0.1044217 0.3056774
vn -0.8801731 -0.3514411 -0.3190367

v -4.47442 -0.3245101 11.25402
vt 0.06300783 0.3068138
vn -0.8801731 -0.3514411 -0.3190367

v -4.47442 -0.3245101 11.25402
vt 0.06300783 0.3068138
vn -0.827941 -0.5608152 -3.549586E-06

v -4.47442 -0.3245101 3.698433
vt 0.06303144 0.6393419
vn -0.827941 -0.5608152 -3.549586E-06

v -4.384367 -0.4574099 3.748517
vt 0.07002151 0.6356959
vn -0.827941 -0.5608152 -3.549586E-06

v -4.38443 -0.4574099 11.08523
vt 0.06958711 0.3148199
vn -0.827941 -0.5608152 -3.549586E-06

v -4.47442 -0.3245101 11.25402
vt 0.5564457 0.4787013
vn -0.9958618 -0.0553434 0.07208586

v -4.158244 -1.177118 11.25402
vt 0.5978591 0.4787397
vn -0.6305258 -0.7594161 0.1603886

v -3.902085 -0.9288378 13.81562
vt 0.5976235 0.2717522
vn -0.6305258 -0.7594161 0.1603886

v -4.384367 -0.4574099 3.748517
vt 0.07002151 0.6356959
vn -0.7543411 -0.5738789 0.3187986

v -4.47442 -0.3245101 3.698433
vt 0.06303144 0.6393419
vn -0.7543411 -0.5738789 0.3187986

v -4.47442 -0.7370138 2.949813
vt 0.08080649 0.6711169
vn -0.7543411 -0.5738789 0.3187986

v -4.158244 -1.177118 2.949813
vt 0.1049151 0.6709196
vn -0.7543411 -0.5738789 0.3187986

v -4.109332 -1.09993 3.096319
vt 0.1026492 0.6642334
vn -0.7543411 -0.5738789 0.3187986

v -4.36404 -0.6447988 -3.110792
vt 0.07953334 0.9423895
vn -0.8025182 -0.5765822 -0.1533539

v -4.253622 -0.5525832 -4.035234
vt 0.07774544 0.9832963
vn -0.8025182 -0.5765822 -0.1533539

v -4.008109 -0.8943286 -4.035234
vt 0.09743047 0.9832016
vn -0.8025182 -0.5765822 -0.1533539

v -4.083154 -1.035723 -3.110792
vt 0.1008273 0.9416232
vn -0.8025182 -0.5765822 -0.1533539

v -4.474439 0.2719574 0.9888308
vt 0.03672326 0.7602872
vn -0.9987046 0.04969327 0.0109452

v -4.47442 -0.7370138 0.9888308
vt 0.0810833 0.7570709
vn -0.9987046 0.04969327 0.0109452

v -4.47442 -0.7370138 2.949813
vt 0.08080649 0.6711169
vn -0.9987046 0.04969327 0.0109452

v -4.47442 -0.3245101 3.698433
vt 0.06303144 0.6393419
vn -0.9983038 0.05820468 0.001309118

v -4.354401 0.6186767 4.429293
vt 0.01714606 0.6094737
vn -0.8987988 0.4383348 -0.004833091

v -1.664526 0.4342465 -4.035234
vt 0.03690374 0.9834647
vn 0.9723924 -0.1941689 -0.1294276

v -1.554108 0.2719574 -3.110792
vt 0.03686047 0.9421711
vn 0.9723924 -0.1941689 -0.1294276

v -1.835007 -1.035723 -3.110792
vt 0.1004641 0.9421668
vn 0.9723924 -0.1941689 -0.1294276

v -1.91004 -0.8943286 -4.035234
vt 0.09716237 0.9831238
vn 0.9723924 -0.1941689 -0.1294276

v -4.158244 -1.177118 0.9888308
vt 0.1048908 0.757077
vn -0.8121451 -0.5834554 3.91622E-09

v -4.158244 -1.177118 2.949813
vt 0.1049151 0.6709196
vn -0.8121451 -0.5834554 3.91622E-09

v -4.47442 -0.7370138 2.949813
vt 0.08080649 0.6711169
vn -0.8121451 -0.5834554 3.91622E-09

v -4.47442 -0.7370138 0.9888308
vt 0.0810833 0.7570709
vn -0.8121451 -0.5834554 3.91622E-09

v -4.762524 -0.6447988 -2.970079
vt 0.2774624 0.9737245
vn -0.8126271 -0.5809285 -0.04646863

v -4.354136 -1.227417 -2.970079
vt 0.3015944 0.9736331
vn -0.8126271 -0.5809285 -0.04646863

v -4.463281 -1.368811 0.8481183
vt 0.3092434 0.8050529
vn -0.8126271 -0.5809285 -0.04646863

v -4.92305 -0.7370138 0.8481183
vt 0.2796558 0.804861
vn -0.8126271 -0.5809285 -0.04646863

v -1.454886 -1.368811 0.8481183
vt 0.3091447 0.8049989
vn 0.9952282 -0.09036185 -0.03681778

v -1.564031 -1.227417 -2.970079
vt 0.3017623 0.9736304
vn 0.9952282 -0.09036185 -0.03681778

v -1.470774 0.0119195 -2.970079
vt 0.2475454 0.9737937
vn 0.9952282 -0.09036185 -0.03681778

v -1.310254 0.0119195 0.8481183
vt 0.247557 0.8049539
vn 0.9952282 -0.09036185 -0.03681778

v -4.36404 -0.6447988 -3.110792
vt 0.2772645 0.984051
vn -0.3212922 -0.2274769 -0.9192527

v -4.083154 -1.035723 -3.110792
vt 0.2985585 0.9839741
vn -0.3212922 -0.2274769 -0.9192527

v -4.354136 -1.227417 -2.970079
vt 0.3015944 0.9736331
vn -0.3212922 -0.2274769 -0.9192527

v -4.762524 -0.6447988 -2.970079
vt 0.2774624 0.9737245
vn -0.3212922 -0.2274769 -0.9192527

v -4.36404 0.2719574 -3.110792
vt 0.2345817 0.9842563
vn -0.332969 6.366686E-08 -0.9429378

v -4.36404 -0.6447988 -3.110792
vt 0.2772645 0.984051
vn -0.332969 6.366686E-08 -0.9429378

v -4.762524 -0.6447988 -2.970079
vt 0.2774624 0.9737245
vn -0.332969 6.366686E-08 -0.9429378

v -4.762524 0.0119195 -2.970079
vt 0.2471497 0.973882
vn -0.332969 6.366686E-08 -0.9429378

v -4.762524 0.0119195 -2.970079
vt 0.2471497 0.973882
vn -0.523093 0.8520876 -0.01790387

v -4.923128 0.0119195 0.8481183
vt 0.2476753 0.8048978
vn -0.523093 0.8520876 -0.01790387

v -4.474439 0.2719574 0.9888308
vt 0.2344545 0.7974905
vn -0.523093 0.8520876 -0.01790387

v -4.36404 0.2719574 -3.110792
vt 0.2345817 0.9842563
vn -0.523093 0.8520876 -0.01790387

v -4.47442 -0.7370138 0.9888308
vt 0.2788145 0.7975199
vn -0.2992517 -1.644179E-05 0.9541742

v -4.474439 0.2719574 0.9888308
vt 0.2344545 0.7974905
vn -0.2992517 -1.644179E-05 0.9541742

v -4.923128 0.0119195 0.8481183
vt 0.2476753 0.8048978
vn -0.2992517 -1.644179E-05 0.9541742

v -4.92305 -0.7370138 0.8481183
vt 0.2796558 0.804861
vn -0.2992517 -1.644179E-05 0.9541742

v -1.454886 -1.368811 0.8481183
vt 0.3091447 0.8049989
vn 0.4801678 -0.07818893 0.8736849

v -1.310254 0.0119195 0.8481183
vt 0.247557 0.8049539
vn 0.4801678 -0.07818893 0.8736849

v -1.443741 0.2719574 0.9888308
vt 0.2345885 0.7976043
vn 0.4801678 -0.07818893 0.8736849

v -1.759905 -1.177118 0.9888308
vt 0.3025262 0.7974659
vn 0.4801678 -0.07818893 0.8736849

v -4.158244 -1.177118 0.9888308
vt 0.302622 0.7975261
vn -0.2938628 -0.2127262 0.9318756

v -4.47442 -0.7370138 0.9888308
vt 0.2788145 0.7975199
vn -0.2938628 -0.2127262 0.9318756

v -4.92305 -0.7370138 0.8481183
vt 0.2796558 0.804861
vn -0.2938628 -0.2127262 0.9318756

v -4.463281 -1.368811 0.8481183
vt 0.3092434 0.8050529
vn -0.2938628 -0.2127262 0.9318756

v -1.310254 0.0119195 0.8481183
vt 0.247557 0.8049539
vn 0.9225396 0.3846095 -0.03156227

v -1.470774 0.0119195 -2.970079
vt 0.2475454 0.9737937
vn 0.9225396 0.3846095 -0.03156227

v -1.554108 0.2719574 -3.110792
vt 0.2345917 0.9842622
vn 0.9225396 0.3846095 -0.03156227

v -1.443741 0.2719574 0.9888308
vt 0.2345885 0.7976043
vn 0.9225396 0.3846095 -0.03156227

v -1.564031 -1.227417 -2.970079
vt 0.3017623 0.9736304
vn 0.5541919 -0.08141064 -0.8283982

v -1.835007 -1.035723 -3.110792
vt 0.2985152 0.9839913
vn 0.5541919 -0.08141064 -0.8283982

v -1.554108 0.2719574 -3.110792
vt 0.2345917 0.9842622
vn 0.5541919 -0.08141064 -0.8283982

v -1.470774 0.0119195 -2.970079
vt 0.2475454 0.9737937
vn 0.5541919 -0.08141064 -0.8283982

v -4.097731 0.1007009 13.81562
vt 0.374392 0.188918
vn -1.423762E-07 0 1

v -3.902085 -0.9288378 13.81562
vt 0.3501443 0.2945823
vn -1.423762E-07 0 1

v -2.016076 -0.9288378 13.81562
vt 0.1525065 0.2945823
vn -1.423762E-07 0 1

v -1.820411 0.1007009 13.81562
vt 0.1323281 0.188918
vn -1.423762E-07 0 1

v -2.95908 0.3794942 13.81562
vt 0.2533615 0.1603048
vn -1.423762E-07 0 1

v -3.74525 -1.406288 10.43819
vt 0.355123 0.4984495
vn 1.887057E-09 -0.625325 0.7803645

v -2.17291 -1.406288 10.43819
vt 0.3551727 0.498403
vn 1.887057E-09 -0.625325 0.7803645

v -1.948864 -1.09993 10.68368
vt 0.3801976 0.4828569
vn 1.887057E-09 -0.625325 0.7803645

v -3.969316 -1.09993 10.68368
vt 0.3801803 0.4828734
vn 1.887057E-09 -0.625325 0.7803645

v -2.959074 1.058781 11.25402
vt 0.2190728 0.3075171
vn 7.286233E-07 0.9932399 0.1160792

v -2.959074 0.8825145 4.429292
vt 0.2190727 0.6090808
vn -0.2350464 0.9718742 -0.01461736

v -4.354401 0.6186767 4.429293
vt 0.1499585 0.608465
vn -0.8987988 0.4383348 -0.004833091

v -4.47442 0.6186767 11.25402
vt 0.140616 0.3069396
vn -0.8012316 0.5863684 0.1191638

v -1.563778 0.6186767 4.429293
vt 0.15007 0.6084656
vn 0.8890422 0.4578252 0.0003354068

v -2.959074 0.8825145 4.429292
vt 0.2191828 0.6090808
vn 0.2350498 0.9718734 -0.01461768

v -2.959074 1.058781 11.25402
vt 0.2191828 0.3075171
vn 7.286233E-07 0.9932399 0.1160792

v -1.443741 0.6186767 11.25402
vt 0.1407264 0.3069396
vn 0.801231 0.5863697 0.119162

v -4.354401 0.6186767 4.429293
vt 0.1499585 0.608465
vn -0.2196009 0.9754224 -0.01807151

v -2.959074 0.8825145 4.429292
vt 0.2190727 0.6090808
vn -0.2196009 0.9754224 -0.01807151

v -2.959074 0.7759914 -4.035234
vt 0.2190699 0.9837334
vn -0.2196009 0.9754224 -0.01807151

v -4.253622 0.4342465 -4.035234
vt 0.1523986 0.9866053
vn -0.2196009 0.9754224 -0.01807151

v -1.563778 0.6186767 4.429293
vt 0.15007 0.6084656
vn 0.2196033 0.9754218 -0.01807111

v -1.664526 0.4342465 -4.035234
vt 0.1525144 0.9866065
vn 0.2196033 0.9754218 -0.01807111

v -2.959074 0.7759914 -4.035234
vt 0.2191853 0.9837334
vn 0.2196033 0.9754218 -0.01807111

v -2.959074 0.8825145 4.429292
vt 0.2191828 0.6090808
vn 0.2196033 0.9754218 -0.01807111

v -1.759905 -1.177118 2.949813
vt 0.1048183 0.6708794
vn 0.9664167 -0.25491 -0.03255385

v -1.759905 -1.177118 0.9888308
vt 0.104795 0.7570175
vn 0.9664167 -0.25491 -0.03255385

v -1.443741 0.2719574 0.9888308
vt 0.03685725 0.7603995
vn 0.9664167 -0.25491 -0.03255385

v -1.443741 -0.3245101 3.698433
vt 0.06312883 0.6391843
vn 0.9664167 -0.25491 -0.03255385

v -1.563778 0.6186767 4.429293
vt 0.01695282 0.60953
vn 0.8890422 0.4578252 0.0003354068

v -1.443741 0.6186767 11.25402
vt 0.01833886 0.3068843
vn 0.801231 0.5863697 0.119162

v -1.443741 -0.3245101 11.25402
vt 0.0630585 0.3068851
vn 0.9958622 -0.05533939 0.07208375

v -1.443741 -0.3245101 3.698433
vt 0.06312883 0.6391843
vn 0.9961419 0.08741558 0.007731525

v -4.47442 -0.3245101 11.25402
vt 0.06300783 0.3068138
vn -0.9958618 -0.0553434 0.07208586

v -4.47442 0.6186767 11.25402
vt 0.01843983 0.3069106
vn -0.8012316 0.5863684 0.1191638

v -2.959074 1.058781 11.25402
vt 0.4365726 0.4791805
vn 7.286233E-07 0.9932399 0.1160792

v -2.95908 0.3794942 13.81562
vt 0.4362213 0.2718337
vn -2.773122E-07 0.9693135 0.2458278

v -4.109332 -1.09993 11.10098
vt 0.297785 0.3172688
vn 4.648929E-09 -0.8928717 -0.4503112

v -1.808829 -1.09993 11.10098
vt 0.297809 0.3172016
vn 4.648929E-09 -0.8928717 -0.4503112

v -1.759905 -1.177118 11.25402
vt 0.297755 0.3091125
vn 4.648929E-09 -0.8928717 -0.4503112

v -4.158244 -1.177118 11.25402
vt 0.2977676 0.3091142
vn 4.648929E-09 -0.8928717 -0.4503112

v -3.74525 -1.406288 5.899264
vt 0.3556056 0.7021193
vn 0 -1 -6.004008E-09

v -2.17291 -1.406288 5.899264
vt 0.3556058 0.702122
vn 0 -1 -6.004008E-09

v -2.17291 -1.406288 10.43819
vt 0.3551727 0.498403
vn 0 -1 -6.004008E-09

v -3.74525 -1.406288 10.43819
vt 0.355123 0.4984495
vn 0 -1 -6.004008E-09

v -1.948864 -1.09993 5.65377
vt 0.3815511 0.7149163
vn 2.447284E-08 -0.6253271 -0.7803628

v -2.17291 -1.406288 5.899264
vt 0.3556058 0.702122
vn 2.447284E-08 -0.6253271 -0.7803628

v -3.74525 -1.406288 5.899264
vt 0.3556056 0.7021193
vn 2.447284E-08 -0.6253271 -0.7803628

v -3.969316 -1.09993 5.65377
vt 0.3815528 0.7149132
vn 2.447284E-08 -0.6253271 -0.7803628

v -1.948864 -1.09993 5.65377
vt 0.2930628 0.5500783
vn 0 -1 -2.949778E-09

v -1.808829 -1.09993 3.096319
vt 0.2989902 0.6651425
vn 0 -1 -2.949778E-09

v -1.808829 -1.09993 11.10098
vt 0.297809 0.3172016
vn 0 -1 -2.949778E-09

v -1.948864 -1.09993 10.68368
vt 0.2923952 0.3339576
vn 0 -1 -2.949778E-09

v -4.109332 -1.09993 3.096319
vt 0.2989239 0.6652079
vn 1.544492E-09 -0.8847201 0.4661227

v -4.158244 -1.177118 2.949813
vt 0.3011186 0.6724752
vn 1.544492E-09 -0.8847201 0.4661227

v -1.759905 -1.177118 2.949813
vt 0.3010965 0.6724364
vn 1.544492E-09 -0.8847201 0.4661227

v -1.808829 -1.09993 3.096319
vt 0.2989902 0.6651425
vn 1.544492E-09 -0.8847201 0.4661227

v -4.158244 -1.177118 2.949813
vt 0.3011186 0.6724752
vn 0 -1 1.392629E-08

v -4.158244 -1.177118 0.9888308
vt 0.301645 0.7580107
vn 0 -1 1.392629E-08

v -1.759905 -1.177118 0.9888308
vt 0.3018127 0.7580295
vn 0 -1 1.392629E-08

v -1.759905 -1.177118 2.949813
vt 0.3010965 0.6724364
vn 0 -1 1.392629E-08

v -4.158244 -1.177118 0.9888308
vt 0.373499 0.7946004
vn 9.559933E-09 -0.5917394 0.8061293

v -4.463281 -1.368811 0.8481183
vt 0.3869739 0.8051994
vn 9.559933E-09 -0.5917394 0.8061293

v -1.454886 -1.368811 0.8481183
vt 0.3870132 0.8051556
vn 9.559933E-09 -0.5917394 0.8061293

v -1.759905 -1.177118 0.9888308
vt 0.3736667 0.7946193
vn 9.559933E-09 -0.5917394 0.8061293

v -1.835007 -1.035723 -3.110792
vt 0.3712996 0.7298269
vn -5.344457E-09 -0.9885043 -0.1511929

v -4.083154 -1.035723 -3.110792
vt 0.371337 0.7297935
vn -5.344457E-09 -0.9885043 -0.1511929

v -4.008109 -0.8943286 -4.035234
vt 0.3677219 0.7687693
vn -5.344457E-09 -0.9885043 -0.1511929

v -1.91004 -0.8943286 -4.035234
vt 0.3677503 0.7687614
vn -5.344457E-09 -0.9885043 -0.1511929

v -1.564031 -1.227417 -2.970079
vt 0.3822739 0.9741716
vn 2.786401E-09 -0.5917388 -0.8061298

v -4.354136 -1.227417 -2.970079
vt 0.3822972 0.9742183
vn 2.786401E-09 -0.5917388 -0.8061298

v -4.083154 -1.035723 -3.110792
vt 0.370334 0.9845194
vn 2.786401E-09 -0.5917388 -0.8061298

v -1.835007 -1.035723 -3.110792
vt 0.3702966 0.9845527
vn 2.786401E-09 -0.5917388 -0.8061298

v -4.463281 -1.368811 0.8481183
vt 0.3869739 0.8051994
vn -3.684163E-10 -0.999315 -0.0370064

v -4.354136 -1.227417 -2.970079
vt 0.3822972 0.9742183
vn -3.684163E-10 -0.999315 -0.0370064

v -1.564031 -1.227417 -2.970079
vt 0.3822739 0.9741716
vn -3.684163E-10 -0.999315 -0.0370064

v -1.454886 -1.368811 0.8481183
vt 0.3870132 0.8051556
vn -3.684163E-10 -0.999315 -0.0370064

v -4.109332 -1.09993 11.10098
vt 0.297785 0.3172688
vn 0 -1 4.755545E-09

v -3.969316 -1.09993 10.68368
vt 0.2924075 0.333974
vn 0 -1 4.755545E-09

v -3.74525 -1.406288 5.899264
vt 0.3556056 0.7021193
vn -0.8071541 -0.5903407 -4.107632E-09

v -3.74525 -1.406288 10.43819
vt 0.355123 0.4984495
vn -0.8071541 -0.5903407 -4.107632E-09

v -3.969316 -1.09993 10.68368
vt 0.3801803 0.4828734
vn -0.8071541 -0.5903407 -4.107632E-09

v -3.969316 -1.09993 5.65377
vt 0.3815528 0.7149132
vn -0.8071541 -0.5903407 -4.107632E-09

v -2.17291 -1.406288 5.899264
vt 0.3556058 0.702122
vn 0.8071783 -0.5903078 4.141047E-09

v -1.948864 -1.09993 5.65377
vt 0.3815511 0.7149163
vn 0.8071783 -0.5903078 4.141047E-09

v -1.948864 -1.09993 10.68368
vt 0.3801976 0.4828569
vn 0.8071783 -0.5903078 4.141047E-09

v -2.17291 -1.406288 10.43819
vt 0.3551727 0.498403
vn 0.8071783 -0.5903078 4.141047E-09

v -4.109332 -1.09993 3.096319
vt 0.2989239 0.6652079
vn 0 -1 -4.417298E-09

v -3.969316 -1.09993 5.65377
vt 0.2929971 0.5500936
vn 0 -1 -4.417298E-09

v -4.253622 0.4342465 -4.035234
vt 0.03663015 0.983577
vn -0.9929421 -1.212898E-07 -0.1186001

v -4.253622 -0.5525832 -4.035234
vt 0.07774544 0.9832963
vn -0.9929421 -1.212898E-07 -0.1186001

v -4.36404 -0.6447988 -3.110792
vt 0.07953334 0.9423895
vn -0.9929421 -1.212898E-07 -0.1186001

v -4.36404 0.2719574 -3.110792
vt 0.03717041 0.9419019
vn -0.9929421 -1.212898E-07 -0.1186001

v -1.443741 0.2719574 0.9888308
vt 0.03685725 0.7603995
vn 0.865676 0.500126 -0.02188738

v -1.554108 0.2719574 -3.110792
vt 0.03686047 0.9421711
vn 0.865676 0.500126 -0.02188738

v -1.664526 0.4342465 -4.035234
vt 0.03690374 0.9834647
vn 0.865676 0.500126 -0.02188738

v -1.563778 0.6186767 4.429293
vt 0.01695282 0.60953
vn 0.865676 0.500126 -0.02188738

v -1.443741 0.2719574 0.9888308
vt 0.03685725 0.7603995
vn 0.9938604 0.1080545 0.02378614

v -4.474439 0.2719574 0.9888308
vt 0.03672326 0.7602872
vn -0.8656648 0.5001451 -0.0218918

v -4.354401 0.6186767 4.429293
vt 0.01714606 0.6094737
vn -0.8656648 0.5001451 -0.0218918

v -4.253622 0.4342465 -4.035234
vt 0.03663015 0.983577
vn -0.8656648 0.5001451 -0.0218918

v -4.36404 0.2719574 -3.110792
vt 0.03717041 0.9419019
vn -0.8656648 0.5001451 -0.0218918

# 214 vertice(s).

f 1/1/1 2/2/2 3/3/3
f 1/1/1 3/3/3 4/4/4
f 5/5/5 6/6/6 7/7/7
f 5/5/5 7/7/7 8/8/8
f 5/5/5 8/8/8 9/9/9
f 10/10/10 11/11/11 12/12/12
f 10/10/10 12/12/12 13/13/13
f 14/14/14 15/15/15 16/16/16
f 14/14/14 16/16/16 17/17/17
f 14/14/14 17/17/17 18/18/18
f 14/14/14 18/18/18 19/19/19
f 20/20/20 21/21/21 22/22/22
f 20/20/20 22/22/22 23/23/23
f 24/24/24 25/25/25 26/26/26
f 24/24/24 26/26/26 27/27/27
f 28/28/28 29/29/29 30/30/30
f 28/28/28 30/30/30 31/31/31
f 32/32/32 33/33/33 34/34/34
f 32/32/32 34/34/34 35/35/35
f 36/36/36 37/37/37 38/38/38
f 36/36/36 38/38/38 39/39/39
f 40/40/40 41/41/41 42/42/42
f 40/40/40 42/42/42 43/43/43
f 44/44/44 45/45/45 46/46/46
f 44/44/44 46/46/46 47/47/47
f 4/4/4 3/3/3 48/48/48
f 4/4/4 48/48/48 49/49/49
f 4/4/4 49/49/49 50/50/50
f 51/51/51 52/52/52 53/53/53
f 51/51/51 53/53/53 54/54/54
f 51/51/51 54/54/54 55/55/55
f 56/56/56 57/57/57 58/58/58
f 56/56/56 58/58/58 59/59/59
f 60/60/60 61/61/61 62/62/62
f 60/60/60 62/62/62 63/63/63
f 60/60/60 63/63/63 64/64/64
f 65/65/65 66/66/66 67/67/67
f 65/65/65 67/67/67 68/68/68
f 69/69/69 70/70/70 71/71/71
f 69/69/69 71/71/71 72/72/72
f 73/73/73 74/74/74 75/75/75
f 73/73/73 75/75/75 76/76/76
f 77/77/77 78/78/78 79/79/79
f 77/77/77 79/79/79 80/80/80
f 81/81/81 82/82/82 83/83/83
f 81/81/81 83/83/83 84/84/84
f 85/85/85 86/86/86 87/87/87
f 85/85/85 87/87/87 88/88/88
f 89/89/89 90/90/90 91/91/91
f 89/89/89 91/91/91 92/92/92
f 93/93/93 94/94/94 95/95/95
f 93/93/93 95/95/95 96/96/96
f 97/97/97 98/98/98 99/99/99
f 97/97/97 99/99/99 100/100/100
f 101/101/101 102/102/102 103/103/103
f 101/101/101 103/103/103 104/104/104
f 105/105/105 106/106/106 107/107/107
f 105/105/105 107/107/107 108/108/108
f 109/109/109 110/110/110 111/111/111
f 109/109/109 111/111/111 112/112/112
f 113/113/113 114/114/114 115/115/115
f 113/113/113 115/115/115 116/116/116
f 113/113/113 116/116/116 117/117/117
f 118/118/118 119/119/119 120/120/120
f 118/118/118 120/120/120 121/121/121
f 122/122/122 123/123/123 124/124/124
f 122/122/122 124/124/124 125/125/125
f 126/126/126 127/127/127 128/128/128
f 126/126/126 128/128/128 129/129/129
f 130/130/130 131/131/131 132/132/132
f 130/130/130 132/132/132 133/133/133
f 134/134/134 135/135/135 136/136/136
f 134/134/134 136/136/136 137/137/137
f 138/138/138 139/139/139 140/140/140
f 138/138/138 140/140/140 141/141/141
f 142/142/142 143/143/143 144/144/144
f 142/142/142 144/144/144 145/145/145
f 64/64/64 63/63/63 146/146/146
f 64/64/64 146/146/146 147/147/147
f 9/9/9 8/8/8 148/148/148
f 9/9/9 148/148/148 149/149/149
f 49/49/49 6/6/6 5/5/5
f 49/49/49 5/5/5 50/50/50
f 150/150/150 151/151/151 152/152/152
f 150/150/150 152/152/152 153/153/153
f 154/154/154 155/155/155 156/156/156
f 154/154/154 156/156/156 157/157/157
f 158/158/158 159/159/159 160/160/160
f 158/158/158 160/160/160 161/161/161
f 162/162/162 163/163/163 164/164/164
f 162/162/162 164/164/164 165/165/165
f 166/166/166 167/167/167 168/168/168
f 166/166/166 168/168/168 169/169/169
f 170/170/170 171/171/171 172/172/172
f 170/170/170 172/172/172 173/173/173
f 174/174/174 175/175/175 176/176/176
f 174/174/174 176/176/176 177/177/177
f 178/178/178 179/179/179 180/180/180
f 178/178/178 180/180/180 181/181/181
f 182/182/182 183/183/183 184/184/184
f 182/182/182 184/184/184 185/185/185
f 186/186/186 187/187/187 188/188/188
f 186/186/186 188/188/188 189/189/189
f 190/190/190 191/191/191 165/165/165
f 190/190/190 165/165/165 164/164/164
f 192/192/192 193/193/193 194/194/194
f 192/192/192 194/194/194 195/195/195
f 196/196/196 197/197/197 198/198/198
f 196/196/196 198/198/198 199/199/199
f 190/190/190 200/200/200 201/201/201
f 190/190/190 201/201/201 191/191/191
f 162/162/162 201/201/201 200/200/200
f 162/162/162 200/200/200 163/163/163
f 202/202/202 203/203/203 204/204/204
f 202/202/202 204/204/204 205/205/205
f 206/206/206 207/207/207 208/208/208
f 206/206/206 208/208/208 209/209/209
f 210/210/210 142/142/142 145/145/145
f 211/211/211 212/212/212 213/213/213
f 211/211/211 213/213/213 214/214/214
# 360 indices; 120 primitives.

# 1 primitive groups.

# 1 parts.

