mtllib LOD2.mtl

g PulsarGunUV
usemtl PulsarGunUV

v -2.959867 0.3794942 13.81562
vt 0.4365186 0.7283303
vn -2.464997E-07 0.9693135 0.2458278

v -2.959861 1.058781 11.25402
vt 0.4366726 0.5209832
vn 7.596285E-07 0.9932399 0.1160791

v -4.475207 0.6186767 11.25402
vt 0.5136424 0.5211864
vn -0.834507 0.5390051 0.1143308

v -4.098518 0.1007009 13.81562
vt 0.5148758 0.7284707
vn -0.8271986 0.510629 0.2345221

v -2.016862 -0.9288378 13.81562
vt 0.5973342 0.7279588
vn 0.6346291 -0.7609431 0.1349506

v -1.760692 -1.177118 11.25402
vt 0.5979196 0.5212171
vn 0.8274671 -0.5545344 0.0882592

v -1.444528 0.6186767 11.25402
vt 0.5135416 0.5211651
vn 0.8345059 0.5390071 0.1143292

v -1.821198 0.1007009 13.81562
vt 0.5145795 0.7283129
vn 0.8271992 0.5106285 0.2345211

v -4.254408 0.4342465 -4.035234
vt 0.8402525 0.9886785
vn 9.898983E-09 0 -1

v -2.959861 0.7759914 -4.035234
vt 0.8552775 0.931762
vn 9.898983E-09 0 -1

v -1.665313 0.4342465 -4.035234
vt 0.8402525 0.8748462
vn 9.898983E-09 0 -1

v -1.910826 -0.8943286 -4.035234
vt 0.7818406 0.8856403
vn 9.898983E-09 0 -1

v -4.008895 -0.8943286 -4.035234
vt 0.7818406 0.9778839
vn 9.898983E-09 0 -1

v -4.15903 -1.177118 11.25402
vt 0.5978591 0.5212603
vn -0.6346296 -0.7609423 0.1349517

v -3.902871 -0.9288378 13.81562
vt 0.5976235 0.7282478
vn -0.6346296 -0.7609423 0.1349517

v -4.923914 0.0119195 0.8481183
vt 0.2476753 0.1951022
vn -0.9485041 -0.3143143 -0.03932485

v -4.763311 0.0119195 -2.970079
vt 0.2471497 0.02611804
vn -0.9485041 -0.3143143 -0.03932485

v -4.354923 -1.227417 -2.970079
vt 0.3015944 0.02636695
vn -0.9485041 -0.3143143 -0.03932485

v -4.464068 -1.368811 0.8481183
vt 0.3092434 0.1949471
vn -0.9485041 -0.3143143 -0.03932485

v -1.455673 -1.368811 0.8481183
vt 0.3091447 0.1950011
vn 0.9952282 -0.09036184 -0.03681778

v -1.564818 -1.227417 -2.970079
vt 0.3017623 0.02636963
vn 0.9952282 -0.09036184 -0.03681778

v -1.471561 0.0119195 -2.970079
vt 0.2475454 0.02620625
vn 0.9952282 -0.09036184 -0.03681778

v -1.311041 0.0119195 0.8481183
vt 0.247557 0.1950461
vn 0.9952282 -0.09036184 -0.03681778

v -4.475226 0.2719574 0.9888308
vt 0.2344545 0.2025095
vn -0.8601512 0.5095924 -0.02134433

v -4.355188 0.6186767 4.429293
vt 0.01714606 0.3905263
vn -0.8601512 0.5095924 -0.02134433

v -4.254408 0.4342465 -4.035234
vt 0.03663015 0.01642299
vn -0.8601512 0.5095924 -0.02134433

v -4.923914 0.0119195 0.8481183
vt 0.2476753 0.1951022
vn -0.3042918 -0.08344855 0.9489167

v -4.464068 -1.368811 0.8481183
vt 0.3092434 0.1949471
vn -0.3042918 -0.08344855 0.9489167

v -4.15903 -1.177118 0.9888308
vt 0.302622 0.2024739
vn -0.3042918 -0.08344855 0.9489167

v -4.475226 0.2719574 0.9888308
vt 0.2344545 0.2025095
vn -0.3042918 -0.08344855 0.9489167

v -1.455673 -1.368811 0.8481183
vt 0.3091447 0.1950011
vn 0.4801678 -0.0781889 0.8736849

v -1.311041 0.0119195 0.8481183
vt 0.247557 0.1950461
vn 0.4801678 -0.0781889 0.8736849

v -1.444528 0.2719574 0.9888308
vt 0.2345885 0.2023957
vn 0.4801678 -0.0781889 0.8736849

v -1.760692 -1.177118 0.9888308
vt 0.3025262 0.2025341
vn 0.4801678 -0.0781889 0.8736849

v -1.564818 -1.227417 -2.970079
vt 0.3017623 0.02636963
vn 0.9502305 -0.1253586 -0.2852143

v -1.910826 -0.8943286 -4.035234
vt 0.3018575 -0.01194608
vn 0.9502305 -0.1253586 -0.2852143

v -1.665313 0.4342465 -4.035234
vt 0.2473943 -0.0118463
vn 0.9502305 -0.1253586 -0.2852143

v -1.471561 0.0119195 -2.970079
vt 0.2475454 0.02620625
vn 0.9502305 -0.1253586 -0.2852143

v -4.098518 0.1007009 13.81562
vt 0.374392 0.8110819
vn -1.423761E-07 0 1

v -3.902871 -0.9288378 13.81562
vt 0.3501443 0.7054177
vn -1.423761E-07 0 1

v -2.016862 -0.9288378 13.81562
vt 0.1525065 0.7054177
vn -1.423761E-07 0 1

v -1.821198 0.1007009 13.81562
vt 0.1323281 0.811082
vn -1.423761E-07 0 1

v -2.959867 0.3794942 13.81562
vt 0.2533615 0.8396952
vn -1.423761E-07 0 1

v -2.959861 1.058781 11.25402
vt 0.2190728 0.6924829
vn 7.596285E-07 0.9932399 0.1160791

v -2.959861 0.8825145 4.429292
vt 0.2190727 0.3909192
vn -0.2350464 0.9718742 -0.01461735

v -4.355188 0.6186767 4.429293
vt 0.1499585 0.391535
vn -0.8289456 0.5592628 -0.00861909

v -4.475207 0.6186767 11.25402
vt 0.140616 0.6930604
vn -0.834507 0.5390051 0.1143308

v -1.564564 0.6186767 4.429293
vt 0.15007 0.3915344
vn 0.8289427 0.5592671 -0.008620086

v -2.959861 0.8825145 4.429292
vt 0.2191828 0.3909192
vn 0.2350498 0.9718734 -0.01461768

v -2.959861 1.058781 11.25402
vt 0.2191828 0.6924829
vn 7.596285E-07 0.9932399 0.1160791

v -1.444528 0.6186767 11.25402
vt 0.1407264 0.6930604
vn 0.8345059 0.5390071 0.1143292

v -4.355188 0.6186767 4.429293
vt 0.1499585 0.391535
vn -0.2196009 0.9754224 -0.01807151

v -2.959861 0.8825145 4.429292
vt 0.2190727 0.3909192
vn -0.2196009 0.9754224 -0.01807151

v -2.959861 0.7759914 -4.035234
vt 0.2190699 0.01626664
vn -0.2196009 0.9754224 -0.01807151

v -4.254408 0.4342465 -4.035234
vt 0.1523986 0.01339465
vn -0.2196009 0.9754224 -0.01807151

v -1.564564 0.6186767 4.429293
vt 0.15007 0.3915344
vn 0.2196033 0.9754218 -0.01807111

v -1.665313 0.4342465 -4.035234
vt 0.1525144 0.01339346
vn 0.2196033 0.9754218 -0.01807111

v -2.959861 0.7759914 -4.035234
vt 0.2191853 0.01626664
vn 0.2196033 0.9754218 -0.01807111

v -2.959861 0.8825145 4.429292
vt 0.2191828 0.3909192
vn 0.2196033 0.9754218 -0.01807111

v -1.444528 0.2719574 0.9888308
vt 0.03685725 0.2396005
vn 0.9893079 -0.1458296 0.001885721

v -1.564564 0.6186767 4.429293
vt 0.01695282 0.39047
vn 0.8289427 0.5592671 -0.008620086

v -1.444528 0.6186767 11.25402
vt 0.01833886 0.6931157
vn 0.8345059 0.5390071 0.1143292

v -1.760692 -1.177118 11.25402
vt 0.1044825 0.6943793
vn 0.8274671 -0.5545344 0.0882592

v -1.760692 -1.177118 0.9888308
vt 0.104795 0.2429825
vn 0.9893079 -0.1458296 0.001885721

v -2.959861 1.058781 11.25402
vt 0.4365726 0.5208195
vn 7.596285E-07 0.9932399 0.1160791

v -2.959867 0.3794942 13.81562
vt 0.4362213 0.7281663
vn -2.464997E-07 0.9693135 0.2458278

v -4.15903 -1.177118 0.9888308
vt 0.373499 0.2053996
vn 9.559934E-09 -0.5917394 0.8061293

v -4.464068 -1.368811 0.8481183
vt 0.3869739 0.1948006
vn 9.559934E-09 -0.5917394 0.8061293

v -1.455673 -1.368811 0.8481183
vt 0.3870132 0.1948444
vn 9.559934E-09 -0.5917394 0.8061293

v -1.760692 -1.177118 0.9888308
vt 0.3736667 0.2053807
vn 9.559934E-09 -0.5917394 0.8061293

v -4.008895 -0.8943286 -4.035234
vt 0.3677219 0.2312307
vn -5.961817E-09 -0.9544221 -0.2984602

v -1.910826 -0.8943286 -4.035234
vt 0.3677503 0.2312386
vn -5.961817E-09 -0.9544221 -0.2984602

v -1.564818 -1.227417 -2.970079
vt 0.3822739 0.02582842
vn -5.961817E-09 -0.9544221 -0.2984602

v -4.354923 -1.227417 -2.970079
vt 0.3822972 0.02578169
vn -5.961817E-09 -0.9544221 -0.2984602

v -4.464068 -1.368811 0.8481183
vt 0.3869739 0.1948006
vn -3.684162E-10 -0.999315 -0.03700641

v -4.354923 -1.227417 -2.970079
vt 0.3822972 0.02578169
vn -3.684162E-10 -0.999315 -0.03700641

v -1.564818 -1.227417 -2.970079
vt 0.3822739 0.02582842
vn -3.684162E-10 -0.999315 -0.03700641

v -1.455673 -1.368811 0.8481183
vt 0.3870132 0.1948444
vn -3.684162E-10 -0.999315 -0.03700641

v -4.15903 -1.177118 11.25402
vt 0.2977676 0.6908858
vn 0 -1 9.451311E-10

v -4.15903 -1.177118 0.9888308
vt 0.1048908 0.242923
vn 0 -1 9.451311E-10

v -1.760692 -1.177118 0.9888308
vt 0.3018127 0.2419705
vn 0 -1 9.451311E-10

v -1.760692 -1.177118 11.25402
vt 0.297755 0.6908875
vn 0 -1 9.451311E-10

v -1.471561 0.0119195 -2.970079
vt 0.2475454 0.02620625
vn 0.9175615 0.3962801 -0.03229483

v -1.665313 0.4342465 -4.035234
vt 0.03667863 0.01644415
vn 0.9175615 0.3962801 -0.03229483

v -1.444528 0.2719574 0.9888308
vt 0.03685725 0.2396005
vn 0.9175615 0.3962801 -0.03229483

v -1.311041 0.0119195 0.8481183
vt 0.247557 0.1950461
vn 0.9175615 0.3962801 -0.03229483

v -4.475207 0.6186767 11.25402
vt 0.01843983 0.6930894
vn -0.834507 0.5390051 0.1143308

v -4.355188 0.6186767 4.429293
vt 0.01714606 0.3905263
vn -0.8289456 0.5592628 -0.00861909

v -4.475226 0.2719574 0.9888308
vt 0.03672326 0.2397128
vn -0.9893059 -0.1458432 0.001886958

v -4.15903 -1.177118 0.9888308
vt 0.1048908 0.242923
vn -0.9893059 -0.1458432 0.001886958

v -4.15903 -1.177118 11.25402
vt 0.1044217 0.6943226
vn -0.9893059 -0.1458432 0.001886958

v -4.254408 0.4342465 -4.035234
vt 0.2473292 -0.011917
vn -0.8748642 -0.2227782 -0.4300959

v -4.008895 -0.8943286 -4.035234
vt 0.3021256 -0.01202393
vn -0.8748642 -0.2227782 -0.4300959

v -4.354923 -1.227417 -2.970079
vt 0.3015944 0.02636695
vn -0.8748642 -0.2227782 -0.4300959

v -4.763311 0.0119195 -2.970079
vt 0.2471497 0.02611804
vn -0.8748642 -0.2227782 -0.4300959

v -4.763311 0.0119195 -2.970079
vt 0.2471497 0.02611804
vn -0.586967 0.8095433 -0.01046131

v -4.923914 0.0119195 0.8481183
vt 0.2476753 0.1951022
vn -0.586967 0.8095433 -0.01046131

v -4.475226 0.2719574 0.9888308
vt 0.2344545 0.2025095
vn -0.586967 0.8095433 -0.01046131

v -4.254408 0.4342465 -4.035234
vt 0.03663015 0.01642299
vn -0.586967 0.8095433 -0.01046131

v -1.665313 0.4342465 -4.035234
vt 0.03667863 0.01644415
vn 0.8601706 0.5095598 -0.02134073

v -1.564564 0.6186767 4.429293
vt 0.01695282 0.39047
vn 0.8601706 0.5095598 -0.02134073

v -1.444528 0.2719574 0.9888308
vt 0.03685725 0.2396005
vn 0.8601706 0.5095598 -0.02134073

# 102 vertice(s).

f 1/1/1 2/2/2 3/3/3
f 1/1/1 3/3/3 4/4/4
f 5/5/5 6/6/6 7/7/7
f 5/5/5 7/7/7 8/8/8
f 9/9/9 10/10/10 11/11/11
f 9/9/9 11/11/11 12/12/12
f 9/9/9 12/12/12 13/13/13
f 4/4/4 3/3/3 14/14/14
f 4/4/4 14/14/14 15/15/15
f 16/16/16 17/17/17 18/18/18
f 16/16/16 18/18/18 19/19/19
f 20/20/20 21/21/21 22/22/22
f 20/20/20 22/22/22 23/23/23
f 24/24/24 25/25/25 26/26/26
f 27/27/27 28/28/28 29/29/29
f 27/27/27 29/29/29 30/30/30
f 31/31/31 32/32/32 33/33/33
f 31/31/31 33/33/33 34/34/34
f 35/35/35 36/36/36 37/37/37
f 35/35/35 37/37/37 38/38/38
f 39/39/39 40/40/40 41/41/41
f 39/39/39 41/41/41 42/42/42
f 39/39/39 42/42/42 43/43/43
f 44/44/44 45/45/45 46/46/46
f 44/44/44 46/46/46 47/47/47
f 48/48/48 49/49/49 50/50/50
f 48/48/48 50/50/50 51/51/51
f 52/52/52 53/53/53 54/54/54
f 52/52/52 54/54/54 55/55/55
f 56/56/56 57/57/57 58/58/58
f 56/56/56 58/58/58 59/59/59
f 60/60/60 61/61/61 62/62/62
f 60/60/60 62/62/62 63/63/63
f 60/60/60 63/63/63 64/64/64
f 8/8/8 7/7/7 65/65/65
f 8/8/8 65/65/65 66/66/66
f 14/14/14 6/6/6 5/5/5
f 14/14/14 5/5/5 15/15/15
f 67/67/67 68/68/68 69/69/69
f 67/67/67 69/69/69 70/70/70
f 71/71/71 72/72/72 73/73/73
f 71/71/71 73/73/73 74/74/74
f 75/75/75 76/76/76 77/77/77
f 75/75/75 77/77/77 78/78/78
f 79/79/79 80/80/80 81/81/81
f 79/79/79 81/81/81 82/82/82
f 83/83/83 84/84/84 85/85/85
f 83/83/83 85/85/85 86/86/86
f 87/87/87 88/88/88 89/89/89
f 87/87/87 89/89/89 90/90/90
f 87/87/87 90/90/90 91/91/91
f 92/92/92 93/93/93 94/94/94
f 92/92/92 94/94/94 95/95/95
f 96/96/96 97/97/97 98/98/98
f 96/96/96 98/98/98 99/99/99
f 100/100/100 101/101/101 102/102/102
# 168 indices; 56 primitives.

# 1 primitive groups.

# 1 parts.

