mtllib LOD3-UVFlip.mtl

g Hgn_PulsarCorvette_LOD2
usemtl Hgn_PulsarCorvette_LOD2

v -1.216967 1.082315 14.82677
vt 0.08411212 0.1951727
vn 0.999919 0 -0.01272821

v -1.216967 -1.532544 14.82677
vt 0.04597067 0.1951727
vn 0.999919 0 -0.01272821

v -1.461442 1.082315 -4.378982
vt 0.08411212 0.4753157
vn 0.999919 0 -0.01272821

v -1.461442 -1.266999 -4.378982
vt 0.04984403 0.4753157
vn 0.999919 0 -0.01272821

v -1.216967 1.082315 14.82677
vt 0.0810582 0.5436434
vn 0 1 0

v -1.461442 1.082315 -4.378982
vt 0.07715 0.85067
vn 0 1 0

v -4.795184 1.082315 14.82677
vt 0.02385619 0.5436434
vn -0.4471774 0.8944272 -0.005692236

v -4.550709 1.082315 -4.378982
vt 0.0277644 0.85067
vn -0.8943548 0.4472136 -0.01138447

v -4.550709 1.082315 -4.378982
vt 0.2420119 0.3943228
vn 0 0 -1

v -1.461442 1.082315 -4.378982
vt 0.3130101 0.3943228
vn 0 0 -1

v -4.550709 -1.266999 -4.378982
vt 0.2420119 0.3403304
vn 0 0 -1

v -1.461442 -1.266999 -4.378982
vt 0.3130101 0.3403304
vn 0 0 -1

v -4.795184 1.082315 14.82677
vt 0.08411212 0.1951727
vn -0.4471774 0.8944272 -0.005692236

v -4.550709 1.082315 -4.378982
vt 0.08411212 0.4753157
vn -0.8943548 0.4472136 -0.01138447

v -4.795184 -1.532544 14.82677
vt 0.04597067 0.1951727
vn -0.999919 0 -0.01272823

v -4.550709 -1.266999 -4.378982
vt 0.04984403 0.4753157
vn -0.999919 0 -0.01272823

v -1.216967 -1.532544 14.82677
vt 0.07669487 0.5442351
vn 0 -0.9999045 -0.013825

v -4.795184 -1.532544 14.82677
vt 0.02785489 0.5442351
vn 0 -0.9999045 -0.013825

v -1.461442 -1.266999 -4.378982
vt 0.07335795 0.8493989
vn 0 -0.9999045 -0.013825

v -4.550709 -1.266999 -4.378982
vt 0.03119181 0.8493989
vn 0 -0.9999045 -0.013825

v -4.795184 1.082315 14.82677
vt 0.2436701 0.398248
vn 0 0 1

v -4.795184 -1.532544 14.82677
vt 0.2436701 0.3381528
vn 0 0 1

v -1.216967 1.082315 14.82677
vt 0.3259054 0.398248
vn 0 0 1

v -1.216967 -1.532544 14.82677
vt 0.3259054 0.3381528
vn 0 0 1

# 24 vertice(s).

f 1/1/1 2/2/2 3/3/3
f 2/2/2 4/4/4 3/3/3
f 5/5/5 6/6/6 7/7/7
f 6/6/6 8/8/8 7/7/7
f 9/9/9 10/10/10 11/11/11
f 10/10/10 12/12/12 11/11/11
f 13/13/13 14/14/14 15/15/15
f 14/14/14 16/16/16 15/15/15
f 17/17/17 18/18/18 19/19/19
f 18/18/18 20/20/20 19/19/19
f 21/21/21 22/22/22 23/23/23
f 22/22/22 24/24/24 23/23/23
# 36 indices; 12 primitives.

# 1 primitive groups.

# 1 parts.

